<svg id="Layer_1" enable-background="new 0 0 97 97" height="512" viewBox="0 0 97 97" width="512" xmlns="http://www.w3.org/2000/svg"><circle cx="48.5" cy="48.5" fill="#4b83c1" r="48"/><g fill="#fff"><path d="m65 37.2c-.8-7.6-7-13.7-14.6-14.6-.6-.1-1.2-.1-1.8-.1-4.1 0-8 1.5-11.1 4.2-3.5 3.1-5.5 7.6-5.5 12.3 0 2.2 1.8 4 4 4s4-1.8 4-4c0-2.4 1-4.8 2.9-6.4 1.6-1.4 3.6-2.2 5.7-2.2.3 0 .7 0 1 .1 3.9.4 7.1 3.6 7.5 7.5s-1.8 7.6-5.4 9c-4.3 1.7-7.1 5.8-7.1 10.4v2.2c0 2.2 1.8 4 4 4s4-1.8 4-4v-2.2c0-1.3.8-2.5 2-3 6.9-2.6 11.2-9.8 10.4-17.2z"/><circle cx="48.5" cy="70.5" r="4"/></g></svg>