<?xml version="1.0" standalone="no"?>
<!DOCTYPE svg PUBLIC "-//W3C//DTD SVG 1.1//EN" "http://www.w3.org/Graphics/SVG/1.1/DTD/svg11.dtd" >
<svg>
<metadata>
Created by FontForge 20090622 at Mon Nov 26 04:48:08 2012
 By ffonts
Copyright (c) 2012 by Brian J. Bonislawsky DBA Astigmatic (AOETI) (astigma@astigmatic.com), with ReservedFont Name "Audiowide"
</metadata>
<defs>
<font id="Audiowide-Regular" horiz-adv-x="654" >
  <font-face 
    font-family="Audiowide"
    font-weight="400"
    font-stretch="normal"
    units-per-em="1000"
    panose-1="2 0 5 3 0 0 0 2 0 4"
    ascent="800"
    descent="-200"
    x-height="528"
    cap-height="700"
    bbox="-218 -285 1318 990"
    underline-thickness="50"
    underline-position="-50"
    unicode-range="U+0020-U+FB02"
  />
<missing-glyph horiz-adv-x="325" 
 />
    <glyph glyph-name="fi" unicode="fi" horiz-adv-x="772" 
d="M527 757v-127h-286c-34 0 -52 -18 -52 -51v-579h-127v579c0 131 107 178 178 178h287zM711 528l-1 -528h-127l-1 401h-342v127h471zM710 755v-125h-127v125h127z" />
    <glyph glyph-name="fl" unicode="fl" horiz-adv-x="835" 
d="M813 127v-127h-57c-72 0 -178 47 -178 178v452h-337c-34 0 -52 -18 -52 -51v-579h-127v579c0 131 107 178 178 178h466l-1 -579c0 -31 22 -51 51 -51h57zM457 528v-127h-217v127h217z" />
    <glyph glyph-name=".notdef" horiz-adv-x="325" 
 />
    <glyph glyph-name=".notdef" horiz-adv-x="325" 
 />
    <glyph glyph-name="minus" unicode="&#x2212;" horiz-adv-x="590" 
d="M524 407v-114h-458v114h458z" />
    <glyph glyph-name="multiply" unicode="&#xd7;" horiz-adv-x="580" 
d="M390 522h144l-172 -172l172 -172h-144l-100 100l-100 -100h-144l172 172l-172 172h144l100 -100z" />
    <glyph glyph-name="exclam" unicode="!" horiz-adv-x="261" 
d="M204 700l-30 -528h-87l-30 528h147zM194 64c0 -35 -29 -63 -63 -63c-35 0 -63 28 -63 63c0 34 28 63 63 63c34 0 63 -29 63 -63z" />
    <glyph glyph-name="dollar" unicode="$" horiz-adv-x="532" 
d="M495 350c0 -181 -112 -229 -172 -229v-121h-114v121h-115v114h228c9 0 39 7 52 58h-280c-31 0 -57 25 -57 57c0 112 44 169 80 196c42 32 84 33 92 33v121h114v-121h115v-114h-228c-8 0 -39 -7 -52 -58h280c32 0 57 -25 57 -57z" />
    <glyph glyph-name="percent" unicode="%" horiz-adv-x="867" 
d="M828 178c0 -91 -74 -165 -165 -165c-92 0 -166 74 -166 165s74 166 166 166c91 0 165 -75 165 -166zM551 636h117l-360 -630h-117zM370 465c0 -92 -74 -166 -166 -166c-91 0 -165 74 -165 166c0 91 74 165 165 165c92 0 166 -74 166 -165zM726 178c0 35 -28 64 -63 64
s-64 -29 -64 -64s29 -63 64 -63s63 28 63 63zM268 465c0 35 -28 63 -64 63c-35 0 -63 -28 -63 -63c0 -36 28 -64 63 -64c36 0 64 28 64 64z" />
    <glyph glyph-name="ampersand" unicode="&#x26;" horiz-adv-x="672" 
d="M634 293v-115h-57l-1 -1c0 -125 -103 -171 -171 -171h-172c-121 0 -169 102 -172 170v59c0 51 16 88 40 115c-28 35 -40 79 -40 115c0 126 103 171 172 171h286v-114h-286c-35 0 -58 -24 -57 -57c0 -37 23 -58 57 -58h172v-114h-172c-36 0 -57 -25 -57 -58v-55
c0 -35 24 -59 57 -59h171c36 0 58 24 58 57c0 56 40 115 114 115h58z" />
    <glyph glyph-name="parenleft" unicode="(" horiz-adv-x="428" 
d="M245 808h176l-45 -45c-2 -2 -211 -213 -211 -413s209 -411 211 -413l45 -45h-176c-71 82 -207 267 -207 458s136 376 207 458z" />
    <glyph glyph-name="parenright" unicode=")" horiz-adv-x="428" 
d="M390 350c0 -191 -137 -376 -207 -458h-176l45 45c2 2 210 213 210 413s-208 411 -210 413l-45 45h176c70 -82 207 -267 207 -458z" />
    <glyph glyph-name="asterisk" unicode="*" horiz-adv-x="543" 
d="M124 644l97 -70v126h102v-125l96 69l60 -83l-120 -86l120 -86l-60 -83l-96 69v-125h-102v125l-97 -69l-59 83l119 86l-119 86z" />
    <glyph glyph-name="plus" unicode="+" horiz-adv-x="540" 
d="M499 407v-114h-172v-172h-114v172h-172v114h172v172h114v-172h172z" />
    <glyph glyph-name="hyphen" unicode="-" horiz-adv-x="572" 
d="M515 407v-114h-458v114h458z" />
    <glyph glyph-name="slash" unicode="/" horiz-adv-x="660" 
d="M484 700h136l-442 -700h-136z" />
    <glyph glyph-name="zero" unicode="0" horiz-adv-x="926" 
d="M871 407v-114c0 -172 -140 -293 -293 -293h-229c-154 0 -293 121 -293 293v114c0 172 139 293 293 293h229c153 0 293 -121 293 -293zM743 293v114c0 101 -78 167 -165 166h-229c-85 2 -166 -64 -166 -166v-114c0 -101 79 -167 166 -166h229c100 0 165 70 165 166z
M688 500c20 -29 12 -69 -18 -88l-343 -229c-11 -8 -23 -11 -35 -11c-21 0 -41 10 -53 28c-20 29 -12 69 17 88l344 229c29 20 69 12 88 -17z" />
    <glyph glyph-name="one" unicode="1" horiz-adv-x="355" 
d="M277 700v-700h-127v573h-115v127h242z" />
    <glyph glyph-name="two" unicode="2" horiz-adv-x="753" 
d="M695 127v-127h-643v235c0 72 47 179 178 179h286c34 0 51 18 51 51v56c0 34 -18 52 -50 52h-408v127h408c130 0 178 -107 178 -178v-57c0 -131 -107 -179 -178 -179h-287c-41 0 -47 -26 -51 -51v-108h516z" />
    <glyph glyph-name="three" unicode="3" horiz-adv-x="720" 
d="M651 522v-344c0 -131 -106 -178 -178 -178h-407v127h407c34 0 51 18 51 51v108h-458v128h458v107c0 34 -18 52 -51 52h-407v127h407c131 0 178 -107 178 -178z" />
    <glyph glyph-name="four" unicode="4" horiz-adv-x="774" 
d="M696 700v-700h-128v286h-451c-36 0 -64 29 -64 64v350h127v-286h388v286h128z" />
    <glyph glyph-name="five" unicode="5" horiz-adv-x="751" 
d="M706 235v-57c0 -71 -48 -178 -178 -178h-465v127h465c32 0 50 22 50 51v57c0 33 -17 51 -51 51h-286c-131 0 -178 107 -178 179v235h585v-127h-458v-108c0 -34 18 -51 51 -51h287c71 0 178 -48 178 -179z" />
    <glyph glyph-name="six" unicode="6" horiz-adv-x="745" 
d="M187 465v-51h338c71 0 178 -48 178 -179v-57c0 -71 -48 -178 -178 -178h-230c-94 0 -235 63 -235 235v230c0 172 141 235 235 235h318v-127h-318c-65 -5 -108 -44 -108 -108zM524 286h-337v-51c0 -66 48 -108 109 -108h229c32 0 50 22 50 51v57c0 33 -17 51 -51 51z" />
    <glyph glyph-name="seven" unicode="7" horiz-adv-x="642" 
d="M610 668c11 -20 11 -44 0 -64l-352 -604h-147l333 573h-411v127h522c23 0 44 -12 55 -32z" />
    <glyph glyph-name="eight" unicode="8" horiz-adv-x="747" 
d="M695 235v-57c0 -71 -48 -178 -178 -178h-287c-71 0 -178 47 -178 178v57c0 49 21 113 75 149c-12 27 -18 56 -18 81v57c0 131 107 178 178 178h172c131 0 178 -107 178 -178v-57c0 -33 -6 -60 -17 -83c42 -27 75 -74 75 -147zM510 465v56c0 34 -18 52 -51 52h-171
c-34 0 -51 -18 -51 -51v-57c0 -34 18 -51 50 -51h172c34 0 51 18 51 51zM567 178v57c0 32 -20 51 -50 51h-287c-31 0 -51 -22 -51 -51v-57c0 -31 22 -51 51 -51h287c32 0 50 22 50 51z" />
    <glyph glyph-name="nine" unicode="9" horiz-adv-x="745" 
d="M42 465v57c0 71 47 178 178 178h229c95 0 236 -63 236 -235v-230c0 -172 -141 -235 -236 -235h-317v127h317c64 6 108 41 108 108v51h-337c-71 0 -178 48 -178 179zM557 414v51c0 66 -47 108 -108 108h-229c-31 0 -51 -22 -51 -51v-57c0 -33 18 -51 52 -51h336z" />
    <glyph glyph-name="equal" unicode="=" horiz-adv-x="592" 
d="M525 522v-115h-458v115h458zM525 293v-115h-458v115h458z" />
    <glyph glyph-name="question" unicode="?" horiz-adv-x="666" 
d="M624 522v-57c0 -72 -47 -179 -178 -179h-108v-114h-127v178c0 35 28 64 63 64h172c33 0 51 17 51 51v57c0 33 -17 51 -51 51h-407v127h407c72 0 178 -47 178 -178zM337 64c0 -35 -28 -63 -63 -63c-34 0 -63 28 -63 63c0 34 29 63 63 63c35 0 63 -29 63 -63z" />
    <glyph glyph-name="A" unicode="A" horiz-adv-x="835" 
d="M761 636v-636h-127v172h-446v-172h-127v350c0 205 149 350 350 350h286c36 0 64 -28 64 -64zM188 350v-51h446v274h-223c-23 0 -223 -9 -223 -223z" />
    <glyph glyph-name="B" unicode="B" horiz-adv-x="810" 
d="M773 178v-24c0 -62 -41 -154 -154 -154h-482c-36 0 -64 28 -64 64v572c0 36 28 64 64 64h425c62 0 154 -41 154 -154v-24c0 -45 -14 -100 -47 -146c57 -35 104 -98 104 -198zM646 155v23c0 66 -43 108 -109 108h-286v128h229c66 0 108 42 108 108v24c0 18 -8 27 -26 27
h-362v-446h419c10 0 27 0 27 28z" />
    <glyph glyph-name="C" unicode="C" horiz-adv-x="748" 
d="M701 127v-127h-458c-71 0 -178 47 -178 178v344c0 71 47 178 178 178h458v-127h-458c-33 0 -51 -18 -51 -52v-343c0 -32 19 -51 51 -51h458z" />
    <glyph glyph-name="D" unicode="D" horiz-adv-x="824" 
d="M773 407v-114c0 -170 -125 -293 -293 -293h-343c-36 0 -64 28 -64 64v572c0 36 28 64 64 64h343c168 0 293 -123 293 -293zM646 293v114c0 100 -67 166 -166 166h-280v-446h280c99 0 166 66 166 166z" />
    <glyph glyph-name="E" unicode="E" horiz-adv-x="756" 
d="M650 414v-128h-401v128h401zM707 127v-127h-458c-71 0 -178 47 -178 178v458c0 36 28 64 64 64h572v-127h-509v-395c0 -33 18 -51 52 -51h457z" />
    <glyph glyph-name="F" unicode="F" horiz-adv-x="739" 
d="M653 414v-128h-401v128h401zM710 700v-127h-509v-573h-127v636c0 36 28 64 64 64h572z" />
    <glyph glyph-name="G" unicode="G" horiz-adv-x="824" 
d="M765 350v-286c0 -36 -28 -64 -64 -64h-458c-71 0 -178 47 -178 178v344c0 71 47 178 178 178h516v-127h-516c-33 0 -51 -18 -51 -52v-343c0 -32 19 -51 51 -51h395v159h-338v128h401c36 0 64 -29 64 -64z" />
    <glyph glyph-name="H" unicode="H" horiz-adv-x="850" 
d="M202 700v-286h446v286h127v-700h-127v286h-446v-286h-127v700h127z" />
    <glyph glyph-name="I" unicode="I" horiz-adv-x="277" 
d="M202 700v-700h-127v700h127z" />
    <glyph glyph-name="J" unicode="J" horiz-adv-x="735" 
d="M663 700v-522c0 -102 -75 -178 -178 -178h-465v127h465c31 0 50 19 50 51v522h128z" />
    <glyph glyph-name="K" unicode="K" horiz-adv-x="814" 
d="M448 350l360 -350h-180l-286 286h-89v128h89l286 286h180zM202 700v-700h-127v700h127z" />
    <glyph glyph-name="L" unicode="L" horiz-adv-x="737" 
d="M717 127v-127h-579c-36 0 -64 28 -64 64v636h127v-573h516z" />
    <glyph glyph-name="M" unicode="M" horiz-adv-x="963" 
d="M889 646v-646h-128v417l-225 -396c-11 -20 -32 -31 -55 -31c-22 0 -43 11 -54 31l-226 396v-417h-127v646c0 29 19 54 47 62c27 7 57 -4 71 -29l289 -502l289 502c15 25 44 36 72 29c27 -8 47 -33 47 -62z" />
    <glyph glyph-name="N" unicode="N" horiz-adv-x="848" 
d="M774 700v-646c0 -36 -29 -64 -64 -64c-16 0 -33 6 -45 19l-464 484v-493h-127v646c0 26 16 49 39 59c24 10 52 5 70 -14l464 -484v493h127z" />
    <glyph glyph-name="O" unicode="O" horiz-adv-x="861" 
d="M809 417v-134c0 -170 -124 -293 -292 -293h-172c-168 0 -293 123 -293 293v134c0 170 125 293 293 293h172c168 0 292 -123 292 -293zM682 283v134c0 100 -67 166 -165 166h-172c-99 0 -166 -66 -166 -166v-134c0 -100 67 -166 166 -166h171c99 0 166 66 166 166z" />
    <glyph glyph-name="P" unicode="P" horiz-adv-x="807" 
d="M772 465v-58c0 -173 -141 -235 -235 -235h-287v127h287c65 5 108 43 108 108v58c-6 64 -42 108 -108 108h-286c-34 0 -52 -18 -52 -51v-522h-127v522c0 131 107 178 178 178h287c172 0 235 -141 235 -235z" />
    <glyph glyph-name="Q" unicode="Q" horiz-adv-x="861" 
d="M809 417v-134c0 -130 -72 -232 -181 -273l148 -118h-184l-122 98h-125c-168 0 -293 123 -293 293v134c0 170 125 293 293 293h172c168 0 292 -123 292 -293zM682 283v134c0 100 -67 166 -165 166h-172c-99 0 -166 -66 -166 -166v-134c0 -100 67 -166 166 -166h171
c99 0 166 66 166 166z" />
    <glyph glyph-name="R" unicode="R" horiz-adv-x="828" 
d="M774 546v-81c0 -173 -141 -236 -235 -236l265 -229h-196l-265 229h-91v127h287c64 6 108 43 108 109v80c0 28 -17 28 -27 28h-419v-573h-127v636c0 36 28 64 64 64h482c113 0 154 -92 154 -154z" />
    <glyph glyph-name="S" unicode="S" horiz-adv-x="779" 
d="M747 206c0 -151 -122 -206 -204 -206h-490v127h490c48 0 77 31 77 79c0 47 -30 80 -77 80h-292c-82 0 -204 55 -204 207s122 207 204 207h432v-127h-432c-48 0 -77 -32 -77 -80s29 -79 77 -79h292h1c82 -2 203 -58 203 -208z" />
    <glyph glyph-name="T" unicode="T" horiz-adv-x="727" 
d="M707 700v-127h-280v-573h-127v573h-280v127h687z" />
    <glyph glyph-name="U" unicode="U" horiz-adv-x="834" 
d="M760 700v-636c0 -36 -28 -64 -64 -64h-286c-161 0 -350 103 -350 350v350h127v-350c0 -214 200 -223 223 -223h223v573h127z" />
    <glyph glyph-name="V" unicode="V" horiz-adv-x="773" 
d="M633 700h142l-332 -675c-10 -21 -32 -35 -57 -35c-24 0 -46 14 -57 35l-331 675h142l246 -504z" />
    <glyph glyph-name="W" unicode="W" horiz-adv-x="1003" 
d="M839 700h129l-117 -656c-5 -26 -25 -47 -51 -52c-26 -4 -52 7 -66 29l-232 382l-233 -382c-11 -19 -32 -30 -54 -30c-30 0 -57 22 -62 53l-118 656h129l84 -462l200 319c11 19 32 30 54 30s42 -11 54 -30l199 -319z" />
    <glyph glyph-name="X" unicode="X" horiz-adv-x="788" 
d="M180 700l214 -250l214 250h173l-301 -351l299 -349h-172l-213 248l-212 -248h-173l299 349l-300 351h172z" />
    <glyph glyph-name="Y" unicode="Y" horiz-adv-x="782" 
d="M741 700v-234c0 -173 -141 -236 -235 -236h-51v-230h-128v230h-51c-94 0 -235 63 -235 236v234h127v-234c0 -66 43 -108 109 -108h229c48 7 108 19 108 108v234h127z" />
    <glyph glyph-name="Z" unicode="Z" horiz-adv-x="714" 
d="M673 662c10 -23 6 -50 -11 -68l-419 -467h429v-127h-572c-25 0 -48 15 -58 38c-11 23 -6 50 10 68l420 467h-430v127h573c25 0 48 -15 58 -38z" />
    <glyph glyph-name="bracketleft" unicode="[" horiz-adv-x="366" 
d="M331 813v-127h-136l-2 -673h136v-128h-199c-17 0 -33 7 -45 19s-19 28 -19 45v801c0 35 30 63 65 63h200z" />
    <glyph glyph-name="backslash" unicode="\" horiz-adv-x="660" 
d="M176 700l442 -700h-136l-442 700h136z" />
    <glyph glyph-name="bracketright" unicode="]" horiz-adv-x="366" 
d="M300 750v-801c0 -17 -7 -33 -19 -45s-28 -19 -45 -19h-199v128h135l-1 673h-136v127h199c36 0 66 -28 66 -63z" />
    <glyph glyph-name="a" unicode="a" 
d="M605 353v-178c0 -70 -47 -175 -175 -175h-229c-70 0 -175 47 -175 175c0 70 47 175 175 175h229v-121h-229c-34 0 -54 -24 -54 -55c0 -33 25 -53 55 -53h228c34 0 54 24 54 55v177c0 33 -23 54 -54 54h-279v121h279c70 0 175 -47 175 -175z" />
    <glyph glyph-name="b" unicode="b" horiz-adv-x="691" 
d="M642 350v-172c0 -71 -47 -178 -178 -178h-229c-71 0 -178 47 -178 178v573h127v-573c0 -31 22 -51 51 -51h229c32 0 51 21 51 51v172c0 32 -21 51 -51 51h-229v127h229c72 0 178 -47 178 -178z" />
    <glyph glyph-name="c" unicode="c" horiz-adv-x="617" 
d="M571 127v-127h-344c-71 0 -178 47 -178 178v172c0 72 47 178 178 178h344v-127h-344c-33 0 -51 -17 -51 -52v-171c0 -33 18 -51 52 -51h343z" />
    <glyph glyph-name="d" unicode="d" horiz-adv-x="691" 
d="M634 751v-573c0 -131 -106 -178 -178 -178h-229c-131 0 -178 107 -178 178v172c0 131 107 178 178 178h229v-127h-228c-34 0 -52 -18 -52 -51v-171c0 -34 18 -52 51 -52h229c34 0 51 18 51 51v573h127z" />
    <glyph glyph-name="e" unicode="e" 
d="M628 353c0 -70 -47 -175 -175 -175h-229v121h229c34 0 54 24 54 55c0 33 -24 53 -54 53h-229c-34 0 -54 -24 -54 -55v-177c0 -34 24 -54 55 -54h228v-121h-229c-70 0 -175 47 -175 175v178c0 70 47 175 175 175h229c70 0 175 -47 175 -175z" />
    <glyph glyph-name="f" unicode="f" horiz-adv-x="551" 
d="M527 528v-127h-287v127h287zM527 757v-127h-286c-34 0 -52 -18 -52 -51v-579h-127v579c0 131 107 178 178 178h287z" />
    <glyph glyph-name="g" unicode="g" horiz-adv-x="691" 
d="M634 350v-401c0 -131 -106 -178 -178 -178h-229v127h229c34 0 51 18 51 51v401c0 33 -17 51 -51 51h-229c-31 0 -51 -22 -51 -51v-172c0 -33 18 -51 52 -51h228v-127h-229c-72 0 -178 47 -178 178v172c0 72 47 178 178 178h229c72 0 178 -47 178 -178z" />
    <glyph glyph-name="h" unicode="h" horiz-adv-x="704" 
d="M647 350v-350h-127v350c0 33 -17 51 -51 51h-229v127h229c72 0 178 -47 178 -178zM189 751v-751h-127v751h127z" />
    <glyph glyph-name="i" unicode="i" horiz-adv-x="251" 
d="M189 751v-115h-127v115h127zM189 528v-528h-127v528h127z" />
    <glyph glyph-name="j" unicode="j" horiz-adv-x="251" 
d="M189 751v-115h-127v115h127zM189 528v-579c0 -131 -106 -178 -178 -178h-229v127h229c34 0 51 18 51 51v579h127z" />
    <glyph glyph-name="k" unicode="k" horiz-adv-x="692" 
d="M381 288l299 -288h-183l-256 247c-14 13 -21 30 -20 49c1 18 10 35 24 46l232 187h203zM189 751v-751h-127v751h127z" />
    <glyph glyph-name="l" unicode="l" horiz-adv-x="314" 
d="M292 127v-127h-57c-72 0 -178 47 -178 178v573h127v-573c0 -31 22 -51 51 -51h57z" />
    <glyph glyph-name="m" unicode="m" horiz-adv-x="874" 
d="M531 350v-350h-127v350c0 33 -18 51 -52 51h-165v-401h-127v465c0 35 28 63 64 63h229c35 0 78 -12 114 -39v39h172c72 0 178 -47 178 -178v-350h-127v350c0 33 -17 51 -51 51h-114c4 -16 6 -33 6 -51z" />
    <glyph glyph-name="n" unicode="n" horiz-adv-x="697" 
d="M645 293v-293h-127v293c0 66 -48 108 -109 108h-222v-401h-127v465c0 35 28 63 64 63h286c95 0 235 -63 235 -235z" />
    <glyph glyph-name="o" unicode="o" horiz-adv-x="683" 
d="M634 350v-172c0 -131 -106 -178 -178 -178h-229c-71 0 -178 47 -178 178v172c0 131 107 178 178 178h229c131 0 178 -106 178 -178zM507 178v171c0 35 -18 52 -51 52h-228c-34 0 -52 -18 -52 -51v-172c0 -33 18 -51 52 -51h228c34 0 51 18 51 51z" />
    <glyph glyph-name="p" unicode="p" horiz-adv-x="691" 
d="M642 350v-172c0 -131 -106 -178 -178 -178h-229v127h229c34 0 51 18 51 51v171c0 35 -18 52 -51 52h-228c-34 0 -52 -18 -52 -51v-515h-127v515c0 131 107 178 178 178h229c131 0 178 -106 178 -178z" />
    <glyph glyph-name="q" unicode="q" horiz-adv-x="691" 
d="M634 350v-515h-127v515c0 33 -17 51 -51 51h-229c-31 0 -51 -22 -51 -51v-172c0 -33 18 -51 52 -51h228v-127h-229c-71 0 -178 47 -178 178v172c0 72 47 178 178 178h229c72 0 178 -47 178 -178z" />
    <glyph glyph-name="r" unicode="r" horiz-adv-x="546" 
d="M522 528v-127h-286c-34 0 -52 -18 -52 -51v-350h-127v350c0 131 107 178 178 178h287z" />
    <glyph glyph-name="s" unicode="s" horiz-adv-x="600" 
d="M570 178c0 -131 -106 -178 -178 -178h-344v127h343c34 0 52 18 52 51c-1 34 -18 51 -51 51h-197c-112 0 -153 88 -153 146c0 113 91 153 153 153h312v-127h-311c-26 0 -27 -14 -27 -24c1 -21 14 -21 26 -21h197c131 0 178 -106 178 -178z" />
    <glyph glyph-name="t" unicode="t" horiz-adv-x="564" 
d="M540 528v-127h-222v-401h-128v401h-165v127h165v172h128v-172h222z" />
    <glyph glyph-name="u" unicode="u" horiz-adv-x="697" 
d="M637 528v-464c0 -36 -28 -64 -63 -64h-287c-94 0 -235 63 -235 235v293h127v-293c0 -66 48 -108 109 -108h222v401h127z" />
    <glyph glyph-name="v" unicode="v" horiz-adv-x="676" 
d="M555 528h135c-85 -267 -260 -529 -566 -529c-36 0 -64 28 -64 63v466h127v-397c185 0 333 262 368 397z" />
    <glyph glyph-name="w" unicode="w" horiz-adv-x="914" 
d="M787 528h142c-120 -272 -311 -528 -444 -528c-36 0 -64 28 -64 64v237l-252 -282c-13 -13 -29 -19 -45 -19c-35 0 -64 28 -64 64v464h127v-301l253 283c18 18 45 23 69 13s39 -33 39 -58v-302c109 105 175 238 239 365z" />
    <glyph glyph-name="x" unicode="x" horiz-adv-x="696" 
d="M488 528h175l-228 -249l257 -279h-175l-169 184l-169 -184h-175l256 280l-227 248h174l140 -153z" />
    <glyph glyph-name="y" unicode="y" horiz-adv-x="704" 
d="M642 528v-579c0 -131 -106 -178 -178 -178h-229v127h229c34 0 51 18 51 51v579h127zM464 127v-127h-229c-72 0 -178 47 -178 178v350h127v-350c0 -33 18 -51 52 -51h228z" />
    <glyph glyph-name="z" unicode="z" horiz-adv-x="602" 
d="M560 489c10 -24 5 -51 -13 -69l-293 -293h305v-127h-458c-26 0 -49 16 -59 39c-10 24 -5 51 14 70l292 292h-305v127h459c25 0 48 -15 58 -39z" />
    <glyph glyph-name="braceleft" unicode="{" horiz-adv-x="425" 
d="M390 813v-127h-63c-32 0 -73 -13 -73 -49v-1v-171c0 -50 -16 -88 -39 -116c27 -35 38 -78 38 -113v-173c0 -46 55 -50 73 -50h63v-128h-64c-80 0 -200 48 -199 179v171c0 34 -19 51 -51 51c-36 0 -64 29 -64 64s28 63 63 64c35 0 53 18 53 51v172c0 112 100 176 200 176
h63z" />
    <glyph glyph-name="bar" unicode="|" horiz-adv-x="261" 
d="M194 815v-930h-127v930h127z" />
    <glyph glyph-name="braceright" unicode="}" horiz-adv-x="425" 
d="M414 350c0 -35 -28 -64 -63 -64c-33 0 -52 -17 -52 -51l1 -171c0 -131 -120 -179 -200 -179h-63l-1 128h64c17 0 72 4 72 50v173c0 35 12 78 38 113c-23 28 -39 66 -39 116v171v1c-6 37 -38 49 -72 49h-64v127h64c106 0 199 -70 199 -176c0 -4 1 -62 1 -172
c0 -33 17 -51 52 -51c35 -1 63 -29 63 -64z" />
    <glyph glyph-name="dagger" unicode="&#x2020;" horiz-adv-x="422" 
d="M274 815v-179h109v-114h-109v-637h-127v637h-108v114h108v179h127z" />
    <glyph glyph-name="cent" unicode="&#xa2;" horiz-adv-x="511" 
d="M455 235v-114h-120v-121h-114v121c-69 0 -172 46 -172 172v114c0 69 46 172 172 172v121h114v-121h120v-114h-234c-36 0 -57 -24 -57 -58v-114c0 -35 23 -58 57 -58h234z" />
    <glyph glyph-name="sterling" unicode="&#xa3;" horiz-adv-x="880" 
d="M493 405v-114h-165v-164h335c34 0 51 18 51 50v64h127v-64c0 -130 -106 -177 -177 -177h-399c-35 0 -63 28 -63 63v228h-165v114h165v118c0 71 47 177 177 177h234v-127h-234c-31 0 -51 -21 -51 -50v-118h165z" />
    <glyph glyph-name="section" unicode="&#xa7;" horiz-adv-x="806" 
d="M758 91c0 -151 -122 -206 -204 -206h-490v128h490c47 0 77 34 77 78c0 47 -32 81 -77 81h-292c-82 0 -204 55 -204 207c0 50 13 87 30 114c-18 30 -30 68 -30 115c0 151 122 207 204 207h432v-128h-432c-48 0 -77 -34 -77 -79c0 -47 32 -80 77 -80h293
c82 -1 203 -57 203 -208c0 -50 -14 -87 -31 -115c19 -30 31 -67 31 -114zM262 401c-22 0 -47 4 -72 13c-3 -9 -5 -20 -5 -35c0 -48 32 -80 77 -80h293c22 -1 46 -5 71 -14c3 9 5 20 5 35c0 47 -32 81 -77 81h-292z" />
    <glyph glyph-name="germandbls" unicode="&#xdf;" horiz-adv-x="784" 
d="M758 177c0 -130 -106 -177 -177 -177h-342v127h342c33 0 51 18 51 50c-1 34 -18 51 -51 51h-196c-112 0 -152 87 -152 146c0 111 91 152 152 152h25c33 0 51 17 51 50c-1 34 -18 51 -51 51h-170c-34 0 -51 -18 -51 -51v-576h-127v576c0 130 106 177 177 177h171
c130 0 178 -106 178 -177c0 -130 -106 -177 -178 -177h-24c-26 0 -27 -14 -26 -24c0 -20 13 -20 25 -20h196c130 0 177 -106 177 -178z" />
    <glyph glyph-name="Oslash" unicode="&#xd8;" horiz-adv-x="862" 
d="M819 751l-95 -121c53 -52 86 -126 86 -213v-134c0 -170 -124 -293 -292 -293h-172c-39 0 -76 7 -110 19l-47 -60h-145l95 121c-54 52 -86 127 -86 213v134c0 171 125 293 293 293h172c39 0 76 -7 109 -19l47 60h145zM683 283v134c0 45 -14 84 -38 112l-323 -411
c8 -1 15 -1 24 -1h171c99 0 166 66 166 166zM180 283c0 -46 14 -84 38 -112l323 411c-8 1 -15 1 -23 1h-172c-99 0 -166 -66 -166 -166v-134z" />
    <glyph glyph-name="yen" unicode="&#xa5;" horiz-adv-x="806" 
d="M631 177v-114h-164v-63h-127v63h-165v114h165v51h-51c-94 0 -234 62 -234 234v238h127v-238c0 -66 47 -107 108 -107h227c64 3 108 43 108 107v238h126v-238c0 -172 -140 -234 -234 -234h-50v-51h164z" />
    <glyph glyph-name="mu" unicode="&#xb5;" horiz-adv-x="713" 
d="M656 528v-464c0 -36 -28 -64 -63 -64h-287c-33 0 -72 7 -108 25v-254h-127v757h127v-293c0 -87 60 -101 109 -108h222v401h127z" />
    <glyph glyph-name="ordfeminine" unicode="&#xaa;" horiz-adv-x="603" 
d="M545 551v-147c0 -60 -40 -149 -150 -149h-196c-60 0 -149 39 -149 149c0 60 40 149 149 149h196v-102h-196c-38 0 -47 -26 -47 -48c0 -29 20 -47 47 -47h196c38 0 48 26 48 48v147c0 30 -21 47 -48 47h-246v102h246c60 0 150 -40 150 -149z" />
    <glyph glyph-name="ordmasculine" unicode="&#xba;" horiz-adv-x="611" 
d="M553 551v-147c0 -110 -90 -149 -150 -149h-196c-60 0 -149 39 -149 149v147c0 109 89 149 149 149h196c110 0 150 -89 150 -149zM451 404v147c0 21 -10 47 -48 47h-196c-21 0 -47 -9 -47 -47v-147c0 -29 19 -48 47 -48h196c22 0 48 10 48 48z" />
    <glyph glyph-name="oslash" unicode="&#xf8;" horiz-adv-x="683" 
d="M642 579l-68 -93c43 -37 60 -93 60 -136v-172c0 -131 -106 -178 -178 -178h-229h-7l-37 -51h-141l67 92c-34 28 -60 72 -60 137v172c0 131 107 178 178 178h229h7l37 51h142zM176 178c0 -14 3 -24 9 -33l185 256h-142c-34 0 -52 -18 -52 -51v-172zM507 178v171
c0 14 -3 25 -9 33l-186 -255h144c34 0 51 18 51 51z" />
    <glyph glyph-name="florin" unicode="&#x192;" horiz-adv-x="720" 
d="M671 526v-127h-285v127h285zM671 753v-126h-285c-34 0 -51 -18 -51 -51v-684c0 -130 -106 -177 -177 -177h-114v127h113c34 0 52 18 52 50v684c0 130 106 177 177 177h285z" />
    <glyph glyph-name="divide" unicode="&#xf7;" horiz-adv-x="556" 
d="M341 522c0 -35 -28 -63 -63 -63s-63 28 -63 63s28 63 63 63s63 -28 63 -63zM507 407v-114h-458v114h458zM341 178c0 -35 -28 -63 -63 -63s-63 28 -63 63s28 63 63 63s63 -28 63 -63z" />
    <glyph glyph-name="Euro" unicode="&#x20ac;" horiz-adv-x="906" 
d="M509 318v-114h-165v-26c0 -31 21 -51 51 -51h458v-127h-458c-72 0 -179 47 -179 178v26h-165v114h165v64h-165v114h165v26c0 71 48 178 179 178h458v-127h-458c-33 0 -51 -18 -51 -52v-25h165v-114h-165v-64h165z" />
    <glyph glyph-name="daggerdbl" unicode="&#x2021;" horiz-adv-x="439" 
d="M283 815v-179h109v-114h-109v-344h109v-114h-109v-179h-127v179h-108v114h108v344h-108v114h108v179h127z" />
    <glyph glyph-name="circumflex" unicode="&#x2c6;" horiz-adv-x="558" 
d="M508 648l-59 -82l-170 88l-170 -88l-59 82l229 130z" />
    <glyph glyph-name="caron" unicode="&#x2c7;" horiz-adv-x="558" 
d="M50 686l59 82l170 -88l170 88l59 -82l-229 -130z" />
    <glyph glyph-name="cedilla" unicode="&#xb8;" horiz-adv-x="505" 
d="M286 9l-17 -43c38 0 103 -14 103 -88c0 -75 -82 -99 -155 -99c-66 0 -84 7 -109 11v86c26 -12 62 -22 98 -22c37 0 65 7 65 25c0 21 -36 25 -57 25c-15 0 -33 -2 -46 -6l42 111h76z" />
    <glyph glyph-name="ogonek" unicode="&#x2db;" horiz-adv-x="505" 
d="M202 9h93c-40 -29 -65 -68 -65 -100c0 -24 16 -33 53 -33c33 0 83 15 107 25v-91c-24 -7 -65 -22 -137 -22c-70 0 -127 24 -127 92c0 38 19 99 76 129z" />
    <glyph glyph-name="ring" unicode="&#x2da;" horiz-adv-x="558" 
d="M137 661c0 64 58 117 142 117c93 0 142 -53 142 -117s-54 -117 -142 -117c-89 0 -142 53 -142 117zM231 661c0 -26 17 -47 48 -47s47 21 47 47s-16 47 -47 47s-48 -21 -48 -47z" />
    <glyph glyph-name="hungarumlaut" unicode="&#x2dd;" horiz-adv-x="558" 
d="M267 751l55 -94l-185 -91l-27 45zM477 751l55 -94l-185 -91l-25 45z" />
    <glyph glyph-name="breve" unicode="&#x2d8;" horiz-adv-x="558" 
d="M478 758c-3 -48 -32 -186 -199 -186s-196 138 -199 186h92c8 -23 29 -72 107 -72c77 0 100 49 108 72h91z" />
    <glyph glyph-name="macron" unicode="&#xaf;" horiz-adv-x="558" 
d="M443 586h-328v115h328v-115z" />
    <glyph glyph-name="tilde" unicode="&#x2dc;" horiz-adv-x="558" 
d="M471 738c0 -125 -55 -168 -122 -168c-71 0 -90 59 -132 59c-39 0 -43 -46 -44 -59h-86c0 111 57 168 123 168c61 0 85 -59 131 -59c39 0 43 45 44 59h86z" />
    <glyph glyph-name="quoteleft" unicode="&#x2018;" horiz-adv-x="233" 
d="M32 425l76 246h89l-45 -246h-120z" />
    <glyph glyph-name="quoteright" unicode="&#x2019;" horiz-adv-x="231" 
d="M204 671l-76 -246h-89l45 246h120z" />
    <glyph glyph-name="quotedblleft" unicode="&#x201c;" horiz-adv-x="413" 
d="M32 425l76 246h89l-45 -246h-120zM212 425l76 246h89l-45 -246h-120z" />
    <glyph glyph-name="quotedblright" unicode="&#x201d;" horiz-adv-x="411" 
d="M384 671l-76 -246h-89l45 246h120zM204 671l-76 -246h-89l45 246h120z" />
    <glyph glyph-name="quotesinglbase" unicode="&#x201a;" horiz-adv-x="226" 
d="M188 156l-76 -246h-89l45 246h120z" />
    <glyph glyph-name="quotedblbase" unicode="&#x201e;" horiz-adv-x="406" 
d="M368 156l-76 -246h-89l45 246h120zM188 156l-76 -246h-89l45 246h120z" />
    <glyph glyph-name="grave" unicode="`" horiz-adv-x="558" 
d="M96 657l54 119l235 -137l-34 -73z" />
    <glyph glyph-name="acute" unicode="&#xb4;" horiz-adv-x="558" 
d="M408 776l54 -119l-255 -91l-34 73z" />
    <glyph glyph-name="dieresis" unicode="&#xa8;" horiz-adv-x="558" 
d="M229 642c0 -35 -29 -63 -63 -63c-35 0 -63 28 -63 63c0 34 28 63 63 63c34 0 63 -29 63 -63zM455 642c0 -35 -29 -63 -63 -63c-35 0 -63 28 -63 63c0 34 28 63 63 63c34 0 63 -29 63 -63z" />
    <glyph glyph-name="degree" unicode="&#xb0;" horiz-adv-x="357" 
d="M37 529c0 78 63 142 141 142s142 -64 142 -142s-64 -141 -142 -141s-141 63 -141 141zM125 529c0 -30 23 -53 53 -53s54 23 54 53s-24 54 -54 54s-53 -24 -53 -54z" />
    <glyph glyph-name="plusminus" unicode="&#xb1;" horiz-adv-x="582" 
d="M520 407v-114h-172v-112h-114v112h-172v114h172v112h114v-112h172zM520 114v-114h-458v114h458z" />
    <glyph glyph-name="logicalnot" unicode="&#xac;" horiz-adv-x="579" 
d="M510 407v-286h-114v172h-344v114h458z" />
    <glyph glyph-name="bullet" unicode="&#x2022;" horiz-adv-x="334" 
d="M265 356c0 -55 -45 -98 -98 -98c-55 0 -98 43 -98 98c0 52 43 97 98 97c53 0 98 -45 98 -97z" />
    <glyph glyph-name="dotaccent" unicode="&#x2d9;" horiz-adv-x="558" 
d="M342 642c0 -35 -29 -63 -63 -63c-35 0 -63 28 -63 63c0 34 28 63 63 63c34 0 63 -29 63 -63z" />
    <glyph glyph-name="period" unicode="." horiz-adv-x="206" 
d="M166 64c0 -35 -29 -63 -63 -63c-35 0 -63 28 -63 63c0 34 28 63 63 63c34 0 63 -29 63 -63z" />
    <glyph glyph-name="comma" unicode="," horiz-adv-x="226" 
d="M188 156l-76 -246h-89l45 246h120z" />
    <glyph glyph-name="semicolon" unicode=";" horiz-adv-x="252" 
d="M196 464c0 -35 -29 -63 -63 -63c-35 0 -63 28 -63 63c0 34 28 63 63 63c34 0 63 -29 63 -63zM195 156l-76 -246h-89l45 246h120z" />
    <glyph glyph-name="colon" unicode=":" horiz-adv-x="244" 
d="M185 64c0 -35 -29 -63 -63 -63c-35 0 -63 28 -63 63c0 34 28 63 63 63c34 0 63 -29 63 -63zM185 464c0 -35 -29 -63 -63 -63c-35 0 -63 28 -63 63c0 34 28 63 63 63c34 0 63 -29 63 -63z" />
    <glyph glyph-name="exclamdown" unicode="&#xa1;" horiz-adv-x="250" 
d="M51 -199l30 528h87l30 -528h-147zM61 437c0 35 29 63 63 63c35 0 63 -28 63 -63c0 -34 -28 -63 -63 -63c-34 0 -63 29 -63 63z" />
    <glyph glyph-name="questiondown" unicode="&#xbf;" horiz-adv-x="662" 
d="M40 -21v57c0 72 47 179 178 179h108v114h127v-178c0 -35 -28 -64 -63 -64h-172c-33 0 -51 -17 -51 -51v-57c0 -33 17 -51 51 -51h407v-127h-407c-72 0 -178 47 -178 178zM327 437c0 35 28 63 63 63c34 0 63 -28 63 -63c0 -34 -29 -63 -63 -63c-35 0 -63 29 -63 63z" />
    <glyph glyph-name="onehalf" unicode="&#xbd;" horiz-adv-x="758" 
d="M429 636h117l-360 -630h-117zM182 303v321h-135v-89h46v-232h89zM712 18v89h-209v27h118c44 0 91 32 91 91v23c0 44 -32 91 -91 91h-184v-89h186v-27h-118c-59 0 -91 -47 -91 -91v-114h298z" />
    <glyph glyph-name="onequarter" unicode="&#xbc;" horiz-adv-x="790" 
d="M429 636h117l-360 -630h-117zM182 303v321h-135v-89h46v-232h89zM737 18v321h-89v-321h89zM737 134v89h-209v116h-89v-161c0 -24 20 -44 45 -44h253z" />
    <glyph glyph-name="onesuperior" unicode="&#xb9;" horiz-adv-x="240" 
d="M178 624v-321h-89v232h-46v89h135z" />
    <glyph glyph-name="threequarters" unicode="&#xbe;" horiz-adv-x="919" 
d="M558 636h117l-360 -630h-117zM866 18v321h-89v-321h89zM866 134v89h-209v116h-89v-161c0 -24 20 -44 45 -44h253zM301 419v89h-245v-89h245zM331 394v139c0 44 -32 91 -91 91h-184v-89h186v-143h-186v-89h184c44 0 91 32 91 91z" />
    <glyph glyph-name="threesuperior" unicode="&#xb3;" horiz-adv-x="387" 
d="M306 508v-89h-245v89h245zM336 533v-139c0 -59 -47 -91 -91 -91h-184v89h186v143h-186v89h184c59 0 91 -47 91 -91z" />
    <glyph glyph-name="twosuperior" unicode="&#xb2;" horiz-adv-x="406" 
d="M351 392v-89h-298v114c0 44 32 91 91 91h118v27h-186v89h184c59 0 91 -47 91 -91v-23c0 -59 -47 -91 -91 -91h-118v-27h209z" />
    <glyph glyph-name="quotedbl" unicode="&#x22;" horiz-adv-x="383" 
d="M167 671l-20 -246h-81l-19 246h120zM337 671l-20 -246h-81l-19 246h120z" />
    <glyph glyph-name="numbersign" unicode="#" horiz-adv-x="730" 
d="M90 396l27 114h105l36 161h119l-36 -161h122l36 161h119l-36 -161h112l-25 -114h-112l-26 -119h108l-25 -114h-108l-36 -163h-119l36 163h-122l-36 -163h-119l36 163h-111l27 114h109l26 119h-107zM316 396l-26 -119h122l26 119h-122z" />
    <glyph glyph-name="quotesingle" unicode="'" horiz-adv-x="213" 
d="M167 671l-20 -246h-81l-19 246h120z" />
    <glyph glyph-name="less" unicode="&#x3c;" horiz-adv-x="526" 
d="M295 612h181l-291 -261l291 -255h-183l-236 207c-14 12 -22 29 -22 48c0 18 8 35 21 47z" />
    <glyph glyph-name="greater" unicode="&#x3e;" horiz-adv-x="526" 
d="M50 612h181l239 -214c13 -12 21 -29 21 -47c0 -19 -8 -36 -22 -48l-236 -207h-183l291 255z" />
    <glyph glyph-name="asciicircum" unicode="^" horiz-adv-x="431" 
d="M416 502v-162l-204 227l-197 -226v164l154 176c11 13 26 20 43 20c16 0 32 -7 43 -19z" />
    <glyph glyph-name="underscore" unicode="_" horiz-adv-x="682" 
d="M620 -58v-114h-558v114h558z" />
    <glyph glyph-name="asciitilde" unicode="~" horiz-adv-x="634" 
d="M581 296c-27 -27 -78 -49 -130 -49c-80 0 -189 53 -272 53c-45 0 -100 -29 -125 -55v128c27 28 85 50 129 50c80 0 190 -54 273 -54c45 0 99 29 125 56v-129z" />
    <glyph glyph-name="at" unicode="@" horiz-adv-x="662" 
d="M609 387v-172c0 -40 -27 -101 -102 -101h-229c-41 0 -101 27 -101 101c0 41 27 102 101 102h102v-89h-102c-3 0 -12 0 -12 -13c0 -9 6 -12 13 -12h118c5 0 9 3 9 13v114c0 6 0 13 -14 13h-164v89h165c41 0 102 -27 102 -102v-115c0 -4 -1 -8 -1 -12h13c7 0 13 0 13 13
v171c0 43 -30 70 -70 70h-229c-43 0 -70 -31 -70 -70v-229c0 -42 31 -70 70 -70h57v-89h-57c-64 0 -159 42 -159 159v229c0 64 42 159 159 159h229c64 0 159 -42 159 -159z" />
    <glyph glyph-name="AE" unicode="&#xc6;" horiz-adv-x="1319" 
d="M1270 127v-127h-458c-70 0 -175 45 -178 172h-446v-172h-127v350c0 205 149 350 350 350h286h5h568v-127h-509v-395c0 -33 18 -51 52 -51h457zM188 350v-51h446v274h-223c-23 0 -223 -9 -223 -223zM1213 414v-128h-401v128h401z" />
    <glyph glyph-name="ae" unicode="&#xe6;" horiz-adv-x="1090" 
d="M1063 353c0 -70 -47 -175 -175 -175h-229v121h229c34 0 54 24 54 55c0 33 -24 53 -54 53h-229c-34 0 -54 -24 -54 -54v-178v-5c2 -31 25 -49 55 -49h228v-121h-229c-35 0 -79 12 -114 40c-28 -24 -65 -40 -115 -40h-229c-70 0 -175 47 -175 175c0 70 47 175 175 175h229
v-121h-229c-34 0 -54 -24 -54 -55c0 -33 25 -53 55 -53h228c34 0 54 24 54 55v177c0 33 -23 54 -54 54h-279v121h279c35 0 79 -12 114 -40c27 24 65 40 115 40h229c70 0 175 -47 175 -175z" />
    <glyph glyph-name="oe" unicode="&#x153;" horiz-adv-x="1116" 
d="M1093 353c0 -70 -47 -175 -175 -175h-229v121h229c34 0 54 24 54 55c0 33 -24 53 -54 53h-229c-34 0 -54 -24 -54 -55v-177c0 -34 24 -54 55 -54h228v-121h-229c-36 0 -80 12 -116 41c-35 -29 -81 -41 -117 -41h-229c-71 0 -178 47 -178 178v172c0 131 107 178 178 178
h229c51 0 89 -17 117 -41c28 24 65 41 116 41h229c70 0 175 -47 175 -175zM507 178v171c0 35 -18 52 -51 52h-228c-34 0 -52 -18 -52 -51v-172c0 -33 18 -51 52 -51h228c34 0 51 18 51 51z" />
    <glyph glyph-name="OE" unicode="&#x152;" horiz-adv-x="1366" 
d="M1318 127v-127h-458c-45 0 -104 18 -142 65c-51 -47 -121 -75 -201 -75h-172c-168 0 -293 123 -293 293v134c0 170 125 293 293 293h172c64 0 122 -18 169 -50c10 24 32 40 60 40h572v-127h-509v-395c0 -33 18 -51 52 -51h457zM682 283v134c0 100 -67 166 -165 166h-172
c-99 0 -166 -66 -166 -166v-134c0 -100 67 -166 166 -166h171c99 0 166 66 166 166zM1261 414v-128h-401v128h401z" />
    <glyph glyph-name="paragraph" unicode="&#xb6;" horiz-adv-x="944" 
d="M690 573h-54c4 -16 6 -33 6 -51v-522h-127v522c0 33 -18 51 -52 51h-186c-66 0 -102 -44 -108 -108v-58c0 -65 43 -103 108 -108h187v-127h-187c-94 0 -235 62 -235 235v58c0 94 63 235 235 235h187c34 0 78 -12 113 -38v38h114c71 0 178 -47 178 -178v-522h-127v522
c0 33 -18 51 -52 51z" />
    <glyph glyph-name="registered" unicode="&#xae;" horiz-adv-x="702" 
d="M641 396v-92c0 -175 -144 -221 -221 -221h-138c-76 0 -221 46 -221 221v92c0 175 145 221 221 221h138c77 0 221 -46 221 -221zM506 431v-33c0 -62 -39 -93 -77 -103l103 -88c19 21 33 52 33 97v92c0 61 -23 102 -71 126c-36 18 -74 19 -74 19h-138
c-14 0 -145 -5 -145 -145v-92c0 -140 131 -145 146 -145h137c5 0 22 0 43 6l-145 126h-13v77h95c20 0 30 11 30 30v31h-153v-214h-76v252c0 21 17 38 38 38h193c48 0 74 -38 74 -74z" />
    <glyph glyph-name="copyright" unicode="&#xa9;" horiz-adv-x="702" 
d="M641 396v-92c0 -175 -144 -221 -221 -221h-138c-76 0 -221 46 -221 221v92c0 175 145 221 221 221h138c77 0 221 -46 221 -221zM565 304v92c0 61 -23 102 -71 126c-36 18 -74 19 -74 19h-138c-14 0 -145 -5 -145 -145v-92c0 -140 131 -145 146 -145h137
c15 0 145 6 145 145zM471 276v-76h-183c-33 0 -84 23 -84 84v137c0 33 22 84 84 84h183v-76h-183c-4 0 -6 -1 -6 -1c-1 -1 -2 -6 -2 -7v-137c0 -4 1 -5 1 -5c1 -2 6 -3 7 -3h183z" />
    <glyph glyph-name="trademark" unicode="&#x2122;" horiz-adv-x="804" 
d="M738 671v-258h-69v143l-78 -131v1c-6 -11 -17 -17 -30 -17c-11 0 -23 6 -29 17v-1l-79 131v-143h-67v258c0 16 9 29 24 33s30 -2 39 -15l112 -178l113 178c9 13 24 19 39 15s25 -17 25 -33zM340 701v-68h-107v-220h-69v220h-107v68h283z" />
    <glyph glyph-name="partialdiff" unicode="&#x2202;" horiz-adv-x="695" 
d="M630 579v-401c0 -131 -106 -178 -178 -178h-229c-131 0 -178 107 -178 178v172c0 131 107 178 178 178h229v-127h-228c-34 0 -52 -18 -52 -51v-171c0 -34 18 -52 51 -52h229c34 0 51 18 51 51v401c0 65 -40 108 -108 108h-64v128h64c173 0 235 -141 235 -236z" />
    <glyph glyph-name="guillemotleft" unicode="&#xab;" horiz-adv-x="697" 
d="M231 465h162l-227 -204l226 -197h-164l-176 154c-13 11 -20 26 -20 43c0 16 7 32 19 43zM491 465h162l-227 -204l226 -197h-164l-176 154c-13 11 -20 26 -20 43c0 16 7 32 19 43z" />
    <glyph glyph-name="guillemotright" unicode="&#xbb;" horiz-adv-x="697" 
d="M304 465h162l180 -161c12 -11 19 -27 19 -43c0 -17 -7 -32 -20 -43l-176 -154h-164l226 197zM44 465h162l180 -161c12 -11 19 -27 19 -43c0 -17 -7 -32 -20 -43l-176 -154h-164l226 197z" />
    <glyph glyph-name="endash" unicode="&#x2013;" horiz-adv-x="514" 
d="M457 407v-114h-400v114h400z" />
    <glyph glyph-name="emdash" unicode="&#x2014;" horiz-adv-x="914" 
d="M857 407v-114h-800v114h800z" />
    <glyph glyph-name="guilsinglleft" unicode="&#x2039;" horiz-adv-x="437" 
d="M231 465h162l-227 -204l226 -197h-164l-176 154c-13 11 -20 26 -20 43c0 16 7 32 19 43z" />
    <glyph glyph-name="guilsinglright" unicode="&#x203a;" horiz-adv-x="437" 
d="M44 465h162l180 -161c12 -11 19 -27 19 -43c0 -17 -7 -32 -20 -43l-176 -154h-164l226 197z" />
    <glyph glyph-name="fraction" unicode="&#x2044;" horiz-adv-x="510" 
d="M374 636h117l-360 -630h-117z" />
    <glyph glyph-name="perthousand" unicode="&#x2030;" horiz-adv-x="1231" 
d="M828 178c0 -91 -74 -165 -165 -165c-92 0 -166 74 -166 165s74 166 166 166c91 0 165 -75 165 -166zM551 636h117l-360 -630h-117zM370 465c0 -92 -74 -166 -166 -166c-91 0 -165 74 -165 166c0 91 74 165 165 165c92 0 166 -74 166 -165zM726 178c0 35 -28 64 -63 64
s-64 -29 -64 -64s29 -63 64 -63s63 28 63 63zM268 465c0 35 -28 63 -64 63c-35 0 -63 -28 -63 -63c0 -36 28 -64 63 -64c36 0 64 28 64 64zM1193 178c0 -91 -74 -165 -165 -165c-92 0 -166 74 -166 165s74 166 166 166c91 0 165 -75 165 -166zM1091 178c0 35 -28 64 -63 64
s-64 -29 -64 -64s29 -63 64 -63s63 28 63 63z" />
    <glyph glyph-name="dotlessi" unicode="&#x131;" horiz-adv-x="251" 
d="M189 528v-528h-127v528h127z" />
    <glyph glyph-name="thorn" unicode="&#xfe;" horiz-adv-x="696" 
d="M647 350v-172c0 -131 -106 -178 -178 -178h-229v127h229c34 0 51 18 51 51v171c0 35 -18 52 -51 52h-228c-33 0 -51 -16 -52 -46v-520h-127v916h127v-231c17 5 35 8 51 8h229c131 0 178 -106 178 -178z" />
    <glyph glyph-name="nbspace" unicode="&#xa0;" horiz-adv-x="325" 
 />
    <glyph glyph-name="approxequal" unicode="&#x2248;" horiz-adv-x="670" 
d="M597 396c-27 -27 -78 -49 -130 -49c-80 0 -189 53 -272 53c-45 0 -100 -29 -125 -55v128c27 28 85 50 129 50c80 0 190 -54 273 -54c45 0 99 29 125 56v-129zM597 196c-27 -27 -78 -49 -130 -49c-80 0 -189 53 -272 53c-45 0 -100 -29 -125 -55v128c27 28 85 50 129 50
c80 0 190 -54 273 -54c45 0 99 29 125 56v-129z" />
    <glyph glyph-name="periodcentered" unicode="&#xb7;" horiz-adv-x="214" 
d="M170 351c0 -35 -29 -63 -63 -63c-35 0 -63 28 -63 63c0 34 28 63 63 63c34 0 63 -29 63 -63z" />
    <glyph glyph-name="Lslash" unicode="&#x141;" horiz-adv-x="819" 
d="M427 527v-134l-144 -72v-194h516v-127h-579c-36 0 -64 28 -64 64v193l-129 -64v134l129 64v309h127v-245z" />
    <glyph glyph-name="lslash" unicode="&#x142;" horiz-adv-x="460" 
d="M428 527v-134l-144 -72v-143c0 -31 22 -51 51 -51h57v-127h-57c-72 0 -178 47 -178 178v79l-129 -64v134l129 64v360h127v-296z" />
    <glyph glyph-name="Scaron" unicode="&#x160;" horiz-adv-x="779" 
d="M747 206c0 -151 -122 -206 -204 -206h-490v127h490c48 0 77 31 77 79c0 47 -30 80 -77 80h-292c-82 0 -204 55 -204 207s122 207 204 207h432v-127h-432c-48 0 -77 -32 -77 -80s29 -79 77 -79h292h1c82 -2 203 -58 203 -208zM168 886l59 82l170 -88l170 88l59 -82
l-229 -130z" />
    <glyph glyph-name="scaron" unicode="&#x161;" horiz-adv-x="600" 
d="M570 178c0 -131 -106 -178 -178 -178h-344v127h343c34 0 52 18 52 51c-1 34 -18 51 -51 51h-197c-112 0 -153 88 -153 146c0 113 91 153 153 153h312v-127h-311c-26 0 -27 -14 -27 -24c1 -21 14 -21 26 -21h197c131 0 178 -106 178 -178zM77 706l59 82l170 -88l170 88
l59 -82l-229 -130z" />
    <glyph glyph-name="Yacute" unicode="&#xdd;" horiz-adv-x="782" 
d="M741 700v-234c0 -173 -141 -236 -235 -236h-51v-230h-128v230h-51c-94 0 -235 63 -235 236v234h127v-234c0 -66 43 -108 109 -108h229c48 7 108 19 108 108v234h127zM626 906l54 -119l-255 -91l-34 73z" />
    <glyph glyph-name="yacute" unicode="&#xfd;" horiz-adv-x="704" 
d="M642 528v-579c0 -131 -106 -178 -178 -178h-229v127h229c34 0 51 18 51 51v579h127zM464 127v-127h-229c-72 0 -178 47 -178 178v350h127v-350c0 -33 18 -51 52 -51h228zM556 736l54 -119l-255 -91l-34 73z" />
    <glyph glyph-name="Zcaron" unicode="&#x17d;" horiz-adv-x="714" 
d="M673 662c10 -23 6 -50 -11 -68l-419 -467h429v-127h-572c-25 0 -48 15 -58 38c-11 23 -6 50 10 68l420 467h-430v127h573c25 0 48 -15 58 -38zM128 886l59 82l170 -88l170 88l59 -82l-229 -130z" />
    <glyph glyph-name="zcaron" unicode="&#x17e;" horiz-adv-x="602" 
d="M560 489c10 -24 5 -51 -13 -69l-293 -293h305v-127h-458c-26 0 -49 16 -59 39c-10 24 -5 51 14 70l292 292h-305v127h459c25 0 48 -15 58 -39zM72 716l59 82l170 -88l170 88l59 -82l-229 -130z" />
    <glyph glyph-name="Adieresis" unicode="&#xc4;" horiz-adv-x="835" 
d="M761 636v-636h-127v172h-446v-172h-127v350c0 205 149 350 350 350h286c36 0 64 -28 64 -64zM188 350v-51h446v274h-223c-23 0 -223 -9 -223 -223zM361 842c0 -35 -29 -63 -63 -63c-35 0 -63 28 -63 63c0 34 28 63 63 63c34 0 63 -29 63 -63zM587 842
c0 -35 -29 -63 -63 -63c-35 0 -63 28 -63 63c0 34 28 63 63 63c34 0 63 -29 63 -63z" />
    <glyph glyph-name="Aring" unicode="&#xc5;" horiz-adv-x="835" 
d="M761 636v-636h-127v172h-446v-172h-127v350c0 205 149 350 350 350h286c36 0 64 -28 64 -64zM188 350v-51h446v274h-223c-23 0 -223 -9 -223 -223zM269 861c0 64 58 117 142 117c93 0 142 -53 142 -117s-54 -117 -142 -117c-89 0 -142 53 -142 117zM363 861
c0 -26 17 -47 48 -47s47 21 47 47s-16 47 -47 47s-48 -21 -48 -47z" />
    <glyph glyph-name="Ccedilla" unicode="&#xc7;" horiz-adv-x="748" 
d="M701 127v-127h-251l-13 -34c38 0 103 -14 103 -88c0 -75 -82 -99 -155 -99c-66 0 -84 7 -109 11v86c26 -12 62 -22 98 -22c37 0 65 7 65 25c0 21 -36 25 -57 25c-15 0 -33 -2 -46 -6l38 102h-131c-71 0 -178 47 -178 178v344c0 71 47 178 178 178h458v-127h-458
c-33 0 -51 -18 -51 -52v-343c0 -32 19 -51 51 -51h458z" />
    <glyph glyph-name="Eacute" unicode="&#xc9;" horiz-adv-x="756" 
d="M650 414v-128h-401v128h401zM707 127v-127h-458c-71 0 -178 47 -178 178v458c0 36 28 64 64 64h572v-127h-509v-395c0 -33 18 -51 52 -51h457zM634 976l54 -119l-255 -91l-34 73z" />
    <glyph glyph-name="Ntilde" unicode="&#xd1;" horiz-adv-x="848" 
d="M774 700v-646c0 -36 -29 -64 -64 -64c-16 0 -33 6 -45 19l-464 484v-493h-127v646c0 26 16 49 39 59c24 10 52 5 70 -14l464 -484v493h127zM616 899c0 -125 -55 -168 -122 -168c-71 0 -90 59 -132 59c-39 0 -43 -46 -44 -59h-86c0 111 57 168 123 168
c61 0 85 -59 131 -59c39 0 43 45 44 59h86z" />
    <glyph glyph-name="Odieresis" unicode="&#xd6;" horiz-adv-x="861" 
d="M809 417v-134c0 -170 -124 -293 -292 -293h-172c-168 0 -293 123 -293 293v134c0 170 125 293 293 293h172c168 0 292 -123 292 -293zM682 283v134c0 100 -67 166 -165 166h-172c-99 0 -166 -66 -166 -166v-134c0 -100 67 -166 166 -166h171c99 0 166 66 166 166z
M380 842c0 -35 -29 -63 -63 -63c-35 0 -63 28 -63 63c0 34 28 63 63 63c34 0 63 -29 63 -63zM606 842c0 -35 -29 -63 -63 -63c-35 0 -63 28 -63 63c0 34 28 63 63 63c34 0 63 -29 63 -63z" />
    <glyph glyph-name="Udieresis" unicode="&#xdc;" horiz-adv-x="834" 
d="M760 700v-636c0 -36 -28 -64 -64 -64h-286c-161 0 -350 103 -350 350v350h127v-350c0 -214 200 -223 223 -223h223v573h127zM360 809c0 -35 -29 -63 -63 -63c-35 0 -63 28 -63 63c0 34 28 63 63 63c34 0 63 -29 63 -63zM586 809c0 -35 -29 -63 -63 -63
c-35 0 -63 28 -63 63c0 34 28 63 63 63c34 0 63 -29 63 -63z" />
    <glyph glyph-name="aacute" unicode="&#xe1;" 
d="M605 353v-178c0 -70 -47 -175 -175 -175h-229c-70 0 -175 47 -175 175c0 70 47 175 175 175h229v-121h-229c-34 0 -54 -24 -54 -55c0 -33 25 -53 55 -53h228c34 0 54 24 54 55v177c0 33 -23 54 -54 54h-279v121h279c70 0 175 -47 175 -175zM536 806l54 -119l-255 -91
l-34 73z" />
    <glyph glyph-name="agrave" unicode="&#xe0;" 
d="M605 353v-178c0 -70 -47 -175 -175 -175h-229c-70 0 -175 47 -175 175c0 70 47 175 175 175h229v-121h-229c-34 0 -54 -24 -54 -55c0 -33 25 -53 55 -53h228c34 0 54 24 54 55v177c0 33 -23 54 -54 54h-279v121h279c70 0 175 -47 175 -175zM54 687l54 119l235 -137
l-34 -73z" />
    <glyph glyph-name="acircumflex" unicode="&#xe2;" 
d="M605 353v-178c0 -70 -47 -175 -175 -175h-229c-70 0 -175 47 -175 175c0 70 47 175 175 175h229v-121h-229c-34 0 -54 -24 -54 -55c0 -33 25 -53 55 -53h228c34 0 54 24 54 55v177c0 33 -23 54 -54 54h-279v121h279c70 0 175 -47 175 -175zM544 678l-59 -82l-170 88
l-170 -88l-59 82l229 130z" />
    <glyph glyph-name="adieresis" unicode="&#xe4;" 
d="M605 353v-178c0 -70 -47 -175 -175 -175h-229c-70 0 -175 47 -175 175c0 70 47 175 175 175h229v-121h-229c-34 0 -54 -24 -54 -55c0 -33 25 -53 55 -53h228c34 0 54 24 54 55v177c0 33 -23 54 -54 54h-279v121h279c70 0 175 -47 175 -175zM265 672
c0 -35 -29 -63 -63 -63c-35 0 -63 28 -63 63c0 34 28 63 63 63c34 0 63 -29 63 -63zM491 672c0 -35 -29 -63 -63 -63c-35 0 -63 28 -63 63c0 34 28 63 63 63c34 0 63 -29 63 -63z" />
    <glyph glyph-name="atilde" unicode="&#xe3;" 
d="M605 353v-178c0 -70 -47 -175 -175 -175h-229c-70 0 -175 47 -175 175c0 70 47 175 175 175h229v-121h-229c-34 0 -54 -24 -54 -55c0 -33 25 -53 55 -53h228c34 0 54 24 54 55v177c0 33 -23 54 -54 54h-279v121h279c70 0 175 -47 175 -175zM507 768
c0 -125 -55 -168 -122 -168c-71 0 -90 59 -132 59c-39 0 -43 -46 -44 -59h-86c0 111 57 168 123 168c61 0 85 -59 131 -59c39 0 43 45 44 59h86z" />
    <glyph glyph-name="aring" unicode="&#xe5;" 
d="M605 353v-178c0 -70 -47 -175 -175 -175h-229c-70 0 -175 47 -175 175c0 70 47 175 175 175h229v-121h-229c-34 0 -54 -24 -54 -55c0 -33 25 -53 55 -53h228c34 0 54 24 54 55v177c0 33 -23 54 -54 54h-279v121h279c70 0 175 -47 175 -175zM173 691c0 64 58 117 142 117
c93 0 142 -53 142 -117s-54 -117 -142 -117c-89 0 -142 53 -142 117zM267 691c0 -26 17 -47 48 -47s47 21 47 47s-16 47 -47 47s-48 -21 -48 -47z" />
    <glyph glyph-name="ccedilla" unicode="&#xe7;" horiz-adv-x="617" 
d="M571 127v-127h-194l-13 -34c38 0 103 -14 103 -88c0 -75 -82 -99 -155 -99c-66 0 -84 7 -109 11v86c26 -12 62 -22 98 -22c37 0 65 7 65 25c0 21 -36 25 -57 25c-15 0 -33 -2 -46 -6l38 102h-74c-71 0 -178 47 -178 178v172c0 72 47 178 178 178h344v-127h-344
c-33 0 -51 -17 -51 -52v-171c0 -33 18 -51 52 -51h343z" />
    <glyph glyph-name="eacute" unicode="&#xe9;" 
d="M628 353c0 -70 -47 -175 -175 -175h-229v121h229c34 0 54 24 54 55c0 33 -24 53 -54 53h-229c-34 0 -54 -24 -54 -55v-177c0 -34 24 -54 55 -54h228v-121h-229c-70 0 -175 47 -175 175v178c0 70 47 175 175 175h229c70 0 175 -47 175 -175zM539 806l54 -119l-255 -91
l-34 73z" />
    <glyph glyph-name="egrave" unicode="&#xe8;" 
d="M628 353c0 -70 -47 -175 -175 -175h-229v121h229c34 0 54 24 54 55c0 33 -24 53 -54 53h-229c-34 0 -54 -24 -54 -55v-177c0 -34 24 -54 55 -54h228v-121h-229c-70 0 -175 47 -175 175v178c0 70 47 175 175 175h229c70 0 175 -47 175 -175zM69 687l54 119l235 -137
l-34 -73z" />
    <glyph glyph-name="ecircumflex" unicode="&#xea;" 
d="M628 353c0 -70 -47 -175 -175 -175h-229v121h229c34 0 54 24 54 55c0 33 -24 53 -54 53h-229c-34 0 -54 -24 -54 -55v-177c0 -34 24 -54 55 -54h228v-121h-229c-70 0 -175 47 -175 175v178c0 70 47 175 175 175h229c70 0 175 -47 175 -175zM567 678l-59 -82l-170 88
l-170 -88l-59 82l229 130z" />
    <glyph glyph-name="edieresis" unicode="&#xeb;" 
d="M628 353c0 -70 -47 -175 -175 -175h-229v121h229c34 0 54 24 54 55c0 33 -24 53 -54 53h-229c-34 0 -54 -24 -54 -55v-177c0 -34 24 -54 55 -54h228v-121h-229c-70 0 -175 47 -175 175v178c0 70 47 175 175 175h229c70 0 175 -47 175 -175zM288 672
c0 -35 -29 -63 -63 -63c-35 0 -63 28 -63 63c0 34 28 63 63 63c34 0 63 -29 63 -63zM514 672c0 -35 -29 -63 -63 -63c-35 0 -63 28 -63 63c0 34 28 63 63 63c34 0 63 -29 63 -63z" />
    <glyph glyph-name="iacute" unicode="&#xed;" horiz-adv-x="251" 
d="M189 528v-528h-127v528h127zM331 806l54 -119l-255 -91l-34 73z" />
    <glyph glyph-name="igrave" unicode="&#xec;" horiz-adv-x="251" 
d="M189 528v-528h-127v528h127zM-129 687l54 119l235 -137l-34 -73z" />
    <glyph glyph-name="icircumflex" unicode="&#xee;" horiz-adv-x="251" 
d="M189 528v-528h-127v528h127zM355 648l-59 -82l-170 88l-170 -88l-59 82l229 130z" />
    <glyph glyph-name="idieresis" unicode="&#xef;" horiz-adv-x="251" 
d="M189 528v-528h-127v528h127zM76 672c0 -35 -29 -63 -63 -63c-35 0 -63 28 -63 63c0 34 28 63 63 63c34 0 63 -29 63 -63zM302 672c0 -35 -29 -63 -63 -63c-35 0 -63 28 -63 63c0 34 28 63 63 63c34 0 63 -29 63 -63z" />
    <glyph glyph-name="ntilde" unicode="&#xf1;" horiz-adv-x="697" 
d="M645 293v-293h-127v293c0 66 -48 108 -109 108h-222v-401h-127v465c0 35 28 63 64 63h286c95 0 235 -63 235 -235zM544 768c0 -125 -55 -168 -122 -168c-71 0 -90 59 -132 59c-39 0 -43 -46 -44 -59h-86c0 111 57 168 123 168c61 0 85 -59 131 -59c39 0 43 45 44 59h86z
" />
    <glyph glyph-name="oacute" unicode="&#xf3;" horiz-adv-x="683" 
d="M634 350v-172c0 -131 -106 -178 -178 -178h-229c-71 0 -178 47 -178 178v172c0 131 107 178 178 178h229c131 0 178 -106 178 -178zM507 178v171c0 35 -18 52 -51 52h-228c-34 0 -52 -18 -52 -51v-172c0 -33 18 -51 52 -51h228c34 0 51 18 51 51zM547 806l54 -119
l-255 -91l-34 73z" />
    <glyph glyph-name="ograve" unicode="&#xf2;" horiz-adv-x="683" 
d="M634 350v-172c0 -131 -106 -178 -178 -178h-229c-71 0 -178 47 -178 178v172c0 131 107 178 178 178h229c131 0 178 -106 178 -178zM507 178v171c0 35 -18 52 -51 52h-228c-34 0 -52 -18 -52 -51v-172c0 -33 18 -51 52 -51h228c34 0 51 18 51 51zM80 687l54 119l235 -137
l-34 -73z" />
    <glyph glyph-name="ocircumflex" unicode="&#xf4;" horiz-adv-x="683" 
d="M634 350v-172c0 -131 -106 -178 -178 -178h-229c-71 0 -178 47 -178 178v172c0 131 107 178 178 178h229c131 0 178 -106 178 -178zM507 178v171c0 35 -18 52 -51 52h-228c-34 0 -52 -18 -52 -51v-172c0 -33 18 -51 52 -51h228c34 0 51 18 51 51zM570 678l-59 -82
l-170 88l-170 -88l-59 82l229 130z" />
    <glyph glyph-name="odieresis" unicode="&#xf6;" horiz-adv-x="683" 
d="M634 350v-172c0 -131 -106 -178 -178 -178h-229c-71 0 -178 47 -178 178v172c0 131 107 178 178 178h229c131 0 178 -106 178 -178zM507 178v171c0 35 -18 52 -51 52h-228c-34 0 -52 -18 -52 -51v-172c0 -33 18 -51 52 -51h228c34 0 51 18 51 51zM291 672
c0 -35 -29 -63 -63 -63c-35 0 -63 28 -63 63c0 34 28 63 63 63c34 0 63 -29 63 -63zM517 672c0 -35 -29 -63 -63 -63c-35 0 -63 28 -63 63c0 34 28 63 63 63c34 0 63 -29 63 -63z" />
    <glyph glyph-name="otilde" unicode="&#xf5;" horiz-adv-x="683" 
d="M634 350v-172c0 -131 -106 -178 -178 -178h-229c-71 0 -178 47 -178 178v172c0 131 107 178 178 178h229c131 0 178 -106 178 -178zM507 178v171c0 35 -18 52 -51 52h-228c-34 0 -52 -18 -52 -51v-172c0 -33 18 -51 52 -51h228c34 0 51 18 51 51zM533 768
c0 -125 -55 -168 -122 -168c-71 0 -90 59 -132 59c-39 0 -43 -46 -44 -59h-86c0 111 57 168 123 168c61 0 85 -59 131 -59c39 0 43 45 44 59h86z" />
    <glyph glyph-name="uacute" unicode="&#xfa;" horiz-adv-x="697" 
d="M637 528v-464c0 -36 -28 -64 -63 -64h-287c-94 0 -235 63 -235 235v293h127v-293c0 -66 48 -108 109 -108h222v401h127zM550 776l54 -119l-255 -91l-34 73z" />
    <glyph glyph-name="ugrave" unicode="&#xf9;" horiz-adv-x="697" 
d="M637 528v-464c0 -36 -28 -64 -63 -64h-287c-94 0 -235 63 -235 235v293h127v-293c0 -66 48 -108 109 -108h222v401h127zM85 657l54 119l235 -137l-34 -73z" />
    <glyph glyph-name="ucircumflex" unicode="&#xfb;" horiz-adv-x="697" 
d="M637 528v-464c0 -36 -28 -64 -63 -64h-287c-94 0 -235 63 -235 235v293h127v-293c0 -66 48 -108 109 -108h222v401h127zM573 678l-59 -82l-170 88l-170 -88l-59 82l229 130z" />
    <glyph glyph-name="udieresis" unicode="&#xfc;" horiz-adv-x="697" 
d="M637 528v-464c0 -36 -28 -64 -63 -64h-287c-94 0 -235 63 -235 235v293h127v-293c0 -66 48 -108 109 -108h222v401h127zM294 672c0 -35 -29 -63 -63 -63c-35 0 -63 28 -63 63c0 34 28 63 63 63c34 0 63 -29 63 -63zM520 672c0 -35 -29 -63 -63 -63c-35 0 -63 28 -63 63
c0 34 28 63 63 63c34 0 63 -29 63 -63z" />
    <glyph glyph-name="Agrave" unicode="&#xc0;" horiz-adv-x="835" 
d="M761 636v-636h-127v172h-446v-172h-127v350c0 205 149 350 350 350h286c36 0 64 -28 64 -64zM188 350v-51h446v274h-223c-23 0 -223 -9 -223 -223zM180 857l54 119l235 -137l-34 -73z" />
    <glyph glyph-name="Atilde" unicode="&#xc3;" horiz-adv-x="835" 
d="M761 636v-636h-127v172h-446v-172h-127v350c0 205 149 350 350 350h286c36 0 64 -28 64 -64zM188 350v-51h446v274h-223c-23 0 -223 -9 -223 -223zM603 938c0 -125 -55 -168 -122 -168c-71 0 -90 59 -132 59c-39 0 -43 -46 -44 -59h-86c0 111 57 168 123 168
c61 0 85 -59 131 -59c39 0 43 45 44 59h86z" />
    <glyph glyph-name="Otilde" unicode="&#xd5;" horiz-adv-x="861" 
d="M809 417v-134c0 -170 -124 -293 -292 -293h-172c-168 0 -293 123 -293 293v134c0 170 125 293 293 293h172c168 0 292 -123 292 -293zM682 283v134c0 100 -67 166 -165 166h-172c-99 0 -166 -66 -166 -166v-134c0 -100 67 -166 166 -166h171c99 0 166 66 166 166z
M622 948c0 -125 -55 -168 -122 -168c-71 0 -90 59 -132 59c-39 0 -43 -46 -44 -59h-86c0 111 57 168 123 168c61 0 85 -59 131 -59c39 0 43 45 44 59h86z" />
    <glyph glyph-name="ydieresis" unicode="&#xff;" horiz-adv-x="704" 
d="M642 528v-579c0 -131 -106 -178 -178 -178h-229v127h229c34 0 51 18 51 51v579h127zM464 127v-127h-229c-72 0 -178 47 -178 178v350h127v-350c0 -33 18 -51 52 -51h228zM299 672c0 -35 -29 -63 -63 -63c-35 0 -63 28 -63 63c0 34 28 63 63 63c34 0 63 -29 63 -63z
M525 672c0 -35 -29 -63 -63 -63c-35 0 -63 28 -63 63c0 34 28 63 63 63c34 0 63 -29 63 -63z" />
    <glyph glyph-name="Ydieresis" unicode="&#x178;" horiz-adv-x="782" 
d="M741 700v-234c0 -173 -141 -236 -235 -236h-51v-230h-128v230h-51c-94 0 -235 63 -235 236v234h127v-234c0 -66 43 -108 109 -108h229c48 7 108 19 108 108v234h127zM341 842c0 -35 -29 -63 -63 -63c-35 0 -63 28 -63 63c0 34 28 63 63 63c34 0 63 -29 63 -63zM567 842
c0 -35 -29 -63 -63 -63c-35 0 -63 28 -63 63c0 34 28 63 63 63c34 0 63 -29 63 -63z" />
    <glyph glyph-name="Acircumflex" unicode="&#xc2;" horiz-adv-x="835" 
d="M761 636v-636h-127v172h-446v-172h-127v350c0 205 149 350 350 350h286c36 0 64 -28 64 -64zM188 350v-51h446v274h-223c-23 0 -223 -9 -223 -223zM640 848l-59 -82l-170 88l-170 -88l-59 82l229 130z" />
    <glyph glyph-name="Ecircumflex" unicode="&#xca;" horiz-adv-x="756" 
d="M650 414v-128h-401v128h401zM707 127v-127h-458c-71 0 -178 47 -178 178v458c0 36 28 64 64 64h572v-127h-509v-395c0 -33 18 -51 52 -51h457zM618 848l-59 -82l-170 88l-170 -88l-59 82l229 130z" />
    <glyph glyph-name="Aacute" unicode="&#xc1;" horiz-adv-x="835" 
d="M761 636v-636h-127v172h-446v-172h-127v350c0 205 149 350 350 350h286c36 0 64 -28 64 -64zM188 350v-51h446v274h-223c-23 0 -223 -9 -223 -223zM636 976l54 -119l-255 -91l-34 73z" />
    <glyph glyph-name="Edieresis" unicode="&#xcb;" horiz-adv-x="756" 
d="M650 414v-128h-401v128h401zM707 127v-127h-458c-71 0 -178 47 -178 178v458c0 36 28 64 64 64h572v-127h-509v-395c0 -33 18 -51 52 -51h457zM369 842c0 -35 -29 -63 -63 -63c-35 0 -63 28 -63 63c0 34 28 63 63 63c34 0 63 -29 63 -63zM595 842c0 -35 -29 -63 -63 -63
c-35 0 -63 28 -63 63c0 34 28 63 63 63c34 0 63 -29 63 -63z" />
    <glyph glyph-name="Egrave" unicode="&#xc8;" horiz-adv-x="756" 
d="M650 414v-128h-401v128h401zM707 127v-127h-458c-71 0 -178 47 -178 178v458c0 36 28 64 64 64h572v-127h-509v-395c0 -33 18 -51 52 -51h457zM169 857l54 119l235 -137l-34 -73z" />
    <glyph glyph-name="Iacute" unicode="&#xcd;" horiz-adv-x="277" 
d="M202 700v-700h-127v700h127zM339 976l54 -119l-255 -91l-34 73z" />
    <glyph glyph-name="Icircumflex" unicode="&#xce;" horiz-adv-x="277" 
d="M202 700v-700h-127v700h127zM368 848l-59 -82l-170 88l-170 -88l-59 82l229 130z" />
    <glyph glyph-name="Idieresis" unicode="&#xcf;" horiz-adv-x="277" 
d="M202 700v-700h-127v700h127zM89 842c0 -35 -29 -63 -63 -63c-35 0 -63 28 -63 63c0 34 28 63 63 63c34 0 63 -29 63 -63zM315 842c0 -35 -29 -63 -63 -63c-35 0 -63 28 -63 63c0 34 28 63 63 63c34 0 63 -29 63 -63z" />
    <glyph glyph-name="Igrave" unicode="&#xcc;" horiz-adv-x="277" 
d="M202 700v-700h-127v700h127zM-121 857l54 119l235 -137l-34 -73z" />
    <glyph glyph-name="Oacute" unicode="&#xd3;" horiz-adv-x="861" 
d="M809 417v-134c0 -170 -124 -293 -292 -293h-172c-168 0 -293 123 -293 293v134c0 170 125 293 293 293h172c168 0 292 -123 292 -293zM682 283v134c0 100 -67 166 -165 166h-172c-99 0 -166 -66 -166 -166v-134c0 -100 67 -166 166 -166h171c99 0 166 66 166 166z
M626 976l54 -119l-255 -91l-34 73z" />
    <glyph glyph-name="Ocircumflex" unicode="&#xd4;" horiz-adv-x="861" 
d="M809 417v-134c0 -170 -124 -293 -292 -293h-172c-168 0 -293 123 -293 293v134c0 170 125 293 293 293h172c168 0 292 -123 292 -293zM682 283v134c0 100 -67 166 -165 166h-172c-99 0 -166 -66 -166 -166v-134c0 -100 67 -166 166 -166h171c99 0 166 66 166 166z
M659 848l-59 -82l-170 88l-170 -88l-59 82l229 130z" />
    <glyph glyph-name="Ograve" unicode="&#xd2;" horiz-adv-x="861" 
d="M809 417v-134c0 -170 -124 -293 -292 -293h-172c-168 0 -293 123 -293 293v134c0 170 125 293 293 293h172c168 0 292 -123 292 -293zM682 283v134c0 100 -67 166 -165 166h-172c-99 0 -166 -66 -166 -166v-134c0 -100 67 -166 166 -166h171c99 0 166 66 166 166z
M171 857l54 119l235 -137l-34 -73z" />
    <glyph glyph-name="Uacute" unicode="&#xda;" horiz-adv-x="834" 
d="M760 700v-636c0 -36 -28 -64 -64 -64h-286c-161 0 -350 103 -350 350v350h127v-350c0 -214 200 -223 223 -223h223v573h127zM605 936l54 -119l-255 -91l-34 73z" />
    <glyph glyph-name="Ucircumflex" unicode="&#xdb;" horiz-adv-x="834" 
d="M760 700v-636c0 -36 -28 -64 -64 -64h-286c-161 0 -350 103 -350 350v350h127v-350c0 -214 200 -223 223 -223h223v573h127zM639 848l-59 -82l-170 88l-170 -88l-59 82l229 130z" />
    <glyph glyph-name="Ugrave" unicode="&#xd9;" horiz-adv-x="834" 
d="M760 700v-636c0 -36 -28 -64 -64 -64h-286c-161 0 -350 103 -350 350v350h127v-350c0 -214 200 -223 223 -223h223v573h127zM170 817l54 119l235 -137l-34 -73z" />
    <glyph glyph-name="Eth" unicode="&#xd0;" horiz-adv-x="938" 
d="M887 407v-114c0 -170 -133 -293 -292 -293h-344c-35 0 -64 28 -64 64v229h-165v114h165v229c0 36 29 64 64 64h344c153 0 292 -120 292 -293zM480 293h-165v-166h279c101 0 166 70 166 166v114c0 101 -78 167 -165 166h-280v-166h165v-114z" />
    <glyph glyph-name="eth" unicode="&#xf0;" horiz-adv-x="691" 
d="M634 579v-401c0 -131 -106 -178 -178 -178h-229c-131 0 -178 107 -178 178v172c0 131 107 178 178 178h229v-127h-228c-34 0 -52 -18 -52 -51v-171c0 -34 18 -52 51 -52h229c34 0 51 18 51 51v401c0 65 -40 108 -108 108h-64v128h64c98 0 161 -46 196 -103l116 58
l51 -102l-130 -65c1 -8 2 -16 2 -24z" />
    <glyph glyph-name="Thorn" unicode="&#xde;" horiz-adv-x="812" 
d="M202 757v-154c17 5 35 8 51 8h287c172 0 235 -141 235 -236v-57c0 -173 -141 -235 -235 -235h-287v127h287c65 5 108 43 108 108v57c0 64 -41 109 -108 109h-286c-33 0 -51 -18 -52 -47v-488h-127v808h127z" />
    <glyph glyph-name="ellipsis" unicode="&#x2026;" horiz-adv-x="558" 
d="M166 64c0 -35 -29 -63 -63 -63c-35 0 -63 28 -63 63c0 34 28 63 63 63c34 0 63 -29 63 -63zM342 64c0 -35 -29 -63 -63 -63c-35 0 -63 28 -63 63c0 34 28 63 63 63c34 0 63 -29 63 -63zM518 64c0 -35 -29 -63 -63 -63c-35 0 -63 28 -63 63c0 34 28 63 63 63
c34 0 63 -29 63 -63z" />
    <glyph glyph-name="uni0326" unicode="&#x326;" horiz-adv-x="187" 
d="M153 -88l-60 -196h-72l36 196h96z" />
    <glyph glyph-name="uni0312" unicode="&#x312;" horiz-adv-x="192" 
d="M28 470l61 196h71l-36 -196h-96z" />
    <glyph glyph-name="uni0315" unicode="&#x315;" horiz-adv-x="191" 
d="M166 666l-60 -196h-72l36 196h96z" />
    <glyph glyph-name="uni00AD" unicode="&#xad;" horiz-adv-x="572" 
d="M515 407v-114h-458v114h458z" />
    <glyph glyph-name="currency" unicode="&#xa4;" horiz-adv-x="439" 
d="M165 352c0 -30 23 -53 53 -53s54 23 54 53s-24 54 -54 54s-53 -24 -53 -54zM330 532l74 -72l-55 -54c7 -17 11 -35 11 -54c0 -21 -5 -40 -13 -58l57 -56l-74 -70l-55 55c-18 -8 -37 -12 -57 -12s-38 3 -55 10l-53 -53l-73 73l53 52c-9 18 -13 38 -13 59c0 20 4 40 12 58
l-54 55l75 67l50 -51c18 8 37 13 58 13s42 -5 60 -14z" />
    <glyph glyph-name="dotlessj" unicode="&#x237;" horiz-adv-x="251" 
d="M189 528v-579c0 -131 -106 -178 -178 -178h-229v127h229c34 0 51 18 51 51v579h127z" />
    <glyph glyph-name="Amacron" unicode="&#x100;" horiz-adv-x="835" 
d="M761 636v-636h-127v172h-446v-172h-127v350c0 205 149 350 350 350h286c36 0 64 -28 64 -64zM188 350v-51h446v274h-223c-23 0 -223 -9 -223 -223zM581 757h-328v115h328v-115z" />
    <glyph glyph-name="Abreve" unicode="&#x102;" horiz-adv-x="835" 
d="M761 636v-636h-127v172h-446v-172h-127v350c0 205 149 350 350 350h286c36 0 64 -28 64 -64zM188 350v-51h446v274h-223c-23 0 -223 -9 -223 -223zM616 929c-3 -48 -32 -186 -199 -186s-196 138 -199 186h92c8 -23 29 -72 107 -72c77 0 100 49 108 72h91z" />
    <glyph glyph-name="Aogonek" unicode="&#x104;" horiz-adv-x="835" 
d="M761 636v-636h-24c-33 -27 -53 -62 -53 -91c0 -24 16 -33 53 -33c33 0 83 15 107 25v-91c-24 -7 -65 -22 -137 -22c-70 0 -127 24 -127 92c0 35 16 88 61 120h-7v172h-446v-172h-127v350c0 205 149 350 350 350h286c36 0 64 -28 64 -64zM188 350v-51h446v274h-223
c-23 0 -223 -9 -223 -223z" />
    <glyph glyph-name="Cacute" unicode="&#x106;" horiz-adv-x="748" 
d="M701 127v-127h-458c-71 0 -178 47 -178 178v344c0 71 47 178 178 178h458v-127h-458c-33 0 -51 -18 -51 -52v-343c0 -32 19 -51 51 -51h458zM614 947l54 -119l-255 -91l-34 73z" />
    <glyph glyph-name="Ccircumflex" unicode="&#x108;" horiz-adv-x="748" 
d="M701 127v-127h-458c-71 0 -178 47 -178 178v344c0 71 47 178 178 178h458v-127h-458c-33 0 -51 -18 -51 -52v-343c0 -32 19 -51 51 -51h458zM621 819l-59 -82l-170 88l-170 -88l-59 82l229 130z" />
    <glyph glyph-name="Cdotaccent" unicode="&#x10a;" horiz-adv-x="748" 
d="M701 127v-127h-458c-71 0 -178 47 -178 178v344c0 71 47 178 178 178h458v-127h-458c-33 0 -51 -18 -51 -52v-343c0 -32 19 -51 51 -51h458zM453 813c0 -35 -29 -63 -63 -63c-35 0 -63 28 -63 63c0 34 28 63 63 63c34 0 63 -29 63 -63z" />
    <glyph glyph-name="Ccaron" unicode="&#x10c;" horiz-adv-x="748" 
d="M701 127v-127h-458c-71 0 -178 47 -178 178v344c0 71 47 178 178 178h458v-127h-458c-33 0 -51 -18 -51 -52v-343c0 -32 19 -51 51 -51h458zM171 857l59 82l170 -88l170 88l59 -82l-229 -130z" />
    <glyph glyph-name="Dcaron" unicode="&#x10e;" horiz-adv-x="824" 
d="M773 407v-114c0 -170 -125 -293 -293 -293h-343c-36 0 -64 28 -64 64v572c0 36 28 64 64 64h343c168 0 293 -123 293 -293zM646 293v114c0 100 -67 166 -166 166h-280v-446h280c99 0 166 66 166 166zM183 857l59 82l170 -88l170 88l59 -82l-229 -130z" />
    <glyph glyph-name="Dcroat" unicode="&#x110;" horiz-adv-x="938" 
d="M887 407v-114c0 -170 -133 -293 -292 -293h-344c-35 0 -64 28 -64 64v229h-165v114h165v229c0 36 29 64 64 64h344c153 0 292 -120 292 -293zM480 293h-165v-166h279c101 0 166 70 166 166v114c0 101 -78 167 -165 166h-280v-166h165v-114z" />
    <glyph glyph-name="Emacron" unicode="&#x112;" horiz-adv-x="756" 
d="M650 414v-128h-401v128h401zM707 127v-127h-458c-71 0 -178 47 -178 178v458c0 36 28 64 64 64h572v-127h-509v-395c0 -33 18 -51 52 -51h457zM562 757h-328v115h328v-115z" />
    <glyph glyph-name="Ebreve" unicode="&#x114;" horiz-adv-x="756" 
d="M650 414v-128h-401v128h401zM707 127v-127h-458c-71 0 -178 47 -178 178v458c0 36 28 64 64 64h572v-127h-509v-395c0 -33 18 -51 52 -51h457zM597 929c-3 -48 -32 -186 -199 -186s-196 138 -199 186h92c8 -23 29 -72 107 -72c77 0 100 49 108 72h91z" />
    <glyph glyph-name="Edotaccent" unicode="&#x116;" horiz-adv-x="756" 
d="M650 414v-128h-401v128h401zM707 127v-127h-458c-71 0 -178 47 -178 178v458c0 36 28 64 64 64h572v-127h-509v-395c0 -33 18 -51 52 -51h457zM461 813c0 -35 -29 -63 -63 -63c-35 0 -63 28 -63 63c0 34 28 63 63 63c34 0 63 -29 63 -63z" />
    <glyph glyph-name="Eogonek" unicode="&#x118;" horiz-adv-x="756" 
d="M707 127v-127h-107c-33 -27 -53 -62 -53 -91c0 -24 16 -33 53 -33c33 0 83 15 107 25v-91c-24 -7 -65 -22 -137 -22c-70 0 -127 24 -127 92c0 35 16 88 61 120h-255c-71 0 -178 47 -178 178v458c0 36 28 64 64 64h572v-127h-509v-395c0 -33 18 -51 52 -51h457zM650 414
v-128h-401v128h401z" />
    <glyph glyph-name="Ecaron" unicode="&#x11a;" horiz-adv-x="756" 
d="M650 414v-128h-401v128h401zM707 127v-127h-458c-71 0 -178 47 -178 178v458c0 36 28 64 64 64h572v-127h-509v-395c0 -33 18 -51 52 -51h457zM169 857l59 82l170 -88l170 88l59 -82l-229 -130z" />
    <glyph glyph-name="Gcircumflex" unicode="&#x11c;" horiz-adv-x="824" 
d="M765 350v-286c0 -36 -28 -64 -64 -64h-458c-71 0 -178 47 -178 178v344c0 71 47 178 178 178h516v-127h-516c-33 0 -51 -18 -51 -52v-343c0 -32 19 -51 51 -51h395v159h-338v128h401c36 0 64 -29 64 -64zM661 819l-59 -82l-170 88l-170 -88l-59 82l229 130z" />
    <glyph glyph-name="Gbreve" unicode="&#x11e;" horiz-adv-x="824" 
d="M765 350v-286c0 -36 -28 -64 -64 -64h-458c-71 0 -178 47 -178 178v344c0 71 47 178 178 178h516v-127h-516c-33 0 -51 -18 -51 -52v-343c0 -32 19 -51 51 -51h395v159h-338v128h401c36 0 64 -29 64 -64zM631 929c-3 -48 -32 -186 -199 -186s-196 138 -199 186h92
c8 -23 29 -72 107 -72c77 0 100 49 108 72h91z" />
    <glyph glyph-name="Gdotaccent" unicode="&#x120;" horiz-adv-x="824" 
d="M765 350v-286c0 -36 -28 -64 -64 -64h-458c-71 0 -178 47 -178 178v344c0 71 47 178 178 178h516v-127h-516c-33 0 -51 -18 -51 -52v-343c0 -32 19 -51 51 -51h395v159h-338v128h401c36 0 64 -29 64 -64zM495 813c0 -35 -29 -63 -63 -63c-35 0 -63 28 -63 63
c0 34 28 63 63 63c34 0 63 -29 63 -63z" />
    <glyph glyph-name="Gcommaaccent" unicode="&#x122;" horiz-adv-x="824" 
d="M765 350v-286c0 -36 -28 -64 -64 -64h-458c-71 0 -178 47 -178 178v344c0 71 47 178 178 178h516v-127h-516c-33 0 -51 -18 -51 -52v-343c0 -32 19 -51 51 -51h395v159h-338v128h401c36 0 64 -29 64 -64zM478 -88l-60 -196h-72l36 196h96z" />
    <glyph glyph-name="Hcircumflex" unicode="&#x124;" horiz-adv-x="850" 
d="M202 700v-286h446v286h127v-700h-127v286h-446v-286h-127v700h127zM654 819l-59 -82l-170 88l-170 -88l-59 82l229 130z" />
    <glyph glyph-name="Hbar" unicode="&#x126;" horiz-adv-x="850" 
d="M202 700v-122h446v122h127v-122h50v-114h-50v-464h-127v286h-446v-286h-127v464h-50v114h50v122h127zM202 414h446v50h-446v-50z" />
    <glyph glyph-name="Itilde" unicode="&#x128;" horiz-adv-x="277" 
d="M202 700v-700h-127v700h127zM331 909c0 -125 -55 -168 -122 -168c-71 0 -90 59 -132 59c-39 0 -43 -46 -44 -59h-86c0 111 57 168 123 168c61 0 85 -59 131 -59c39 0 43 45 44 59h86z" />
    <glyph glyph-name="Imacron" unicode="&#x12a;" horiz-adv-x="277" 
d="M202 700v-700h-127v700h127zM303 757h-328v115h328v-115z" />
    <glyph glyph-name="Ibreve" unicode="&#x12c;" horiz-adv-x="277" 
d="M202 700v-700h-127v700h127zM338 929c-3 -48 -32 -186 -199 -186s-196 138 -199 186h92c8 -23 29 -72 107 -72c77 0 100 49 108 72h91z" />
    <glyph glyph-name="Iogonek" unicode="&#x12e;" horiz-adv-x="277" 
d="M202 700v-700h-24c-33 -27 -53 -62 -53 -91c0 -24 16 -33 53 -33c33 0 83 15 107 25v-91c-24 -7 -65 -22 -137 -22c-70 0 -127 24 -127 92c0 35 16 88 61 120h-7v700h127z" />
    <glyph glyph-name="Idotaccent" unicode="&#x130;" horiz-adv-x="277" 
d="M202 700v-700h-127v700h127zM202 813c0 -35 -29 -63 -63 -63c-35 0 -63 28 -63 63c0 34 28 63 63 63c34 0 63 -29 63 -63z" />
    <glyph glyph-name="IJ" unicode="&#x132;" horiz-adv-x="982" 
d="M202 700v-700h-127v700h127zM910 700v-522c0 -102 -75 -178 -178 -178h-465v127h465c31 0 50 19 50 51v522h128z" />
    <glyph glyph-name="Jcircumflex" unicode="&#x134;" horiz-adv-x="735" 
d="M663 700v-522c0 -102 -75 -178 -178 -178h-465v127h465c31 0 50 19 50 51v522h128zM828 819l-59 -82l-170 88l-170 -88l-59 82l229 130z" />
    <glyph glyph-name="Kcommaaccent" unicode="&#x136;" horiz-adv-x="814" 
d="M448 350l360 -350h-180l-286 286h-89v128h89l286 286h180zM202 700v-700h-127v700h127zM423 -88l-60 -196h-72l36 196h96z" />
    <glyph glyph-name="Lacute" unicode="&#x139;" horiz-adv-x="737" 
d="M717 127v-127h-579c-36 0 -64 28 -64 64v636h127v-573h516zM342 947l54 -119l-255 -91l-34 73z" />
    <glyph glyph-name="Lcommaaccent" unicode="&#x13b;" horiz-adv-x="737" 
d="M717 127v-127h-579c-36 0 -64 28 -64 64v636h127v-573h516zM434 -88l-60 -196h-72l36 196h96z" />
    <glyph glyph-name="Ldot" unicode="&#x13f;" horiz-adv-x="856" 
d="M717 127v-127h-579c-36 0 -64 28 -64 64v636h127v-573h516zM812 351c0 -35 -29 -63 -63 -63c-35 0 -63 28 -63 63c0 34 28 63 63 63c34 0 63 -29 63 -63z" />
    <glyph glyph-name="Lcaron" unicode="&#x13d;" horiz-adv-x="737" 
d="M717 127v-127h-579c-36 0 -64 28 -64 64v636h127v-573h516zM434 837l-60 -196h-72l36 196h96z" />
    <glyph glyph-name="Nacute" unicode="&#x143;" horiz-adv-x="848" 
d="M774 700v-646c0 -36 -29 -64 -64 -64c-16 0 -33 6 -45 19l-464 484v-493h-127v646c0 26 16 49 39 59c24 10 52 5 70 -14l464 -484v493h127zM620 947l54 -119l-255 -91l-34 73z" />
    <glyph glyph-name="Ncommaaccent" unicode="&#x145;" horiz-adv-x="848" 
d="M774 700v-646c0 -36 -29 -64 -64 -64c-16 0 -33 6 -45 19l-464 484v-493h-127v646c0 26 16 49 39 59c24 10 52 5 70 -14l464 -484v493h127zM490 -88l-60 -196h-72l36 196h96z" />
    <glyph glyph-name="Ncaron" unicode="&#x147;" horiz-adv-x="848" 
d="M774 700v-646c0 -36 -29 -64 -64 -64c-16 0 -33 6 -45 19l-464 484v-493h-127v646c0 26 16 49 39 59c24 10 52 5 70 -14l464 -484v493h127zM195 857l59 82l170 -88l170 88l59 -82l-229 -130z" />
    <glyph glyph-name="Eng" unicode="&#x14a;" horiz-adv-x="848" 
d="M774 700v-806c0 -102 -75 -178 -178 -178h-465v127h465c31 0 50 19 50 51v135l-445 464v-493h-127v646c0 26 16 49 39 59c24 10 52 5 70 -14l463 -483l1 492h127z" />
    <glyph glyph-name="Omacron" unicode="&#x14c;" horiz-adv-x="861" 
d="M809 417v-134c0 -170 -124 -293 -292 -293h-172c-168 0 -293 123 -293 293v134c0 170 125 293 293 293h172c168 0 292 -123 292 -293zM682 283v134c0 100 -67 166 -165 166h-172c-99 0 -166 -66 -166 -166v-134c0 -100 67 -166 166 -166h171c99 0 166 66 166 166z
M594 757h-328v115h328v-115z" />
    <glyph glyph-name="Obreve" unicode="&#x14e;" horiz-adv-x="861" 
d="M809 417v-134c0 -170 -124 -293 -292 -293h-172c-168 0 -293 123 -293 293v134c0 170 125 293 293 293h172c168 0 292 -123 292 -293zM682 283v134c0 100 -67 166 -165 166h-172c-99 0 -166 -66 -166 -166v-134c0 -100 67 -166 166 -166h171c99 0 166 66 166 166z
M629 929c-3 -48 -32 -186 -199 -186s-196 138 -199 186h92c8 -23 29 -72 107 -72c77 0 100 49 108 72h91z" />
    <glyph glyph-name="Ohungarumlaut" unicode="&#x150;" horiz-adv-x="861" 
d="M809 417v-134c0 -170 -124 -293 -292 -293h-172c-168 0 -293 123 -293 293v134c0 170 125 293 293 293h172c168 0 292 -123 292 -293zM682 283v134c0 100 -67 166 -165 166h-172c-99 0 -166 -66 -166 -166v-134c0 -100 67 -166 166 -166h171c99 0 166 66 166 166z
M456 922l55 -94l-185 -91l-27 45zM666 922l55 -94l-185 -91l-25 45z" />
    <glyph glyph-name="Racute" unicode="&#x154;" horiz-adv-x="828" 
d="M774 546v-81c0 -173 -141 -236 -235 -236l265 -229h-196l-265 229h-91v127h287c64 6 108 43 108 109v80c0 28 -17 28 -27 28h-419v-573h-127v636c0 36 28 64 64 64h482c113 0 154 -92 154 -154zM610 947l54 -119l-255 -91l-34 73z" />
    <glyph glyph-name="Rcommaaccent" unicode="&#x156;" horiz-adv-x="828" 
d="M774 546v-81c0 -173 -141 -236 -235 -236l265 -229h-196l-265 229h-91v127h287c64 6 108 43 108 109v80c0 28 -17 28 -27 28h-419v-573h-127v636c0 36 28 64 64 64h482c113 0 154 -92 154 -154zM480 -88l-60 -196h-72l36 196h96z" />
    <glyph glyph-name="Rcaron" unicode="&#x158;" horiz-adv-x="828" 
d="M774 546v-81c0 -173 -141 -236 -235 -236l265 -229h-196l-265 229h-91v127h287c64 6 108 43 108 109v80c0 28 -17 28 -27 28h-419v-573h-127v636c0 36 28 64 64 64h482c113 0 154 -92 154 -154zM185 857l59 82l170 -88l170 88l59 -82l-229 -130z" />
    <glyph glyph-name="Sacute" unicode="&#x15a;" horiz-adv-x="779" 
d="M747 206c0 -151 -122 -206 -204 -206h-490v127h490c48 0 77 31 77 79c0 47 -30 80 -77 80h-292c-82 0 -204 55 -204 207s122 207 204 207h432v-127h-432c-48 0 -77 -32 -77 -80s29 -79 77 -79h292h1c82 -2 203 -58 203 -208zM607 947l54 -119l-255 -91l-34 73z" />
    <glyph glyph-name="Scircumflex" unicode="&#x15c;" horiz-adv-x="779" 
d="M747 206c0 -151 -122 -206 -204 -206h-490v127h490c48 0 77 31 77 79c0 47 -30 80 -77 80h-292c-82 0 -204 55 -204 207s122 207 204 207h432v-127h-432c-48 0 -77 -32 -77 -80s29 -79 77 -79h292h1c82 -2 203 -58 203 -208zM618 819l-59 -82l-170 88l-170 -88l-59 82
l229 130z" />
    <glyph glyph-name="Scedilla" unicode="&#x15e;" horiz-adv-x="779" 
d="M747 206c0 -151 -122 -206 -204 -206h-112l-13 -34c38 0 103 -14 103 -88c0 -75 -82 -99 -155 -99c-66 0 -84 7 -109 11v86c26 -12 62 -22 98 -22c37 0 65 7 65 25c0 21 -36 25 -57 25c-15 0 -33 -2 -46 -6l38 102h-302v127h490c48 0 77 31 77 79c0 47 -30 80 -77 80
h-292c-82 0 -204 55 -204 207s122 207 204 207h432v-127h-432c-48 0 -77 -32 -77 -80s29 -79 77 -79h293c82 -2 203 -58 203 -208z" />
    <glyph glyph-name="Tcommaaccent" unicode="&#x162;" horiz-adv-x="727" 
d="M707 700v-127h-280v-573h-127v573h-280v127h687zM409 -88l-60 -196h-72l36 196h96z" />
    <glyph glyph-name="Tcaron" unicode="&#x164;" horiz-adv-x="727" 
d="M707 700v-127h-280v-573h-127v573h-280v127h687zM134 857l59 82l170 -88l170 88l59 -82l-229 -130z" />
    <glyph glyph-name="Tbar" unicode="&#x166;" horiz-adv-x="727" 
d="M563 358v-114h-136v-244h-127v244h-137v114h137v215h-280v127h687v-127h-280v-215h136z" />
    <glyph glyph-name="Utilde" unicode="&#x168;" horiz-adv-x="834" 
d="M760 700v-636c0 -36 -28 -64 -64 -64h-286c-161 0 -350 103 -350 350v350h127v-350c0 -214 200 -223 223 -223h223v573h127zM609 909c0 -125 -55 -168 -122 -168c-71 0 -90 59 -132 59c-39 0 -43 -46 -44 -59h-86c0 111 57 168 123 168c61 0 85 -59 131 -59
c39 0 43 45 44 59h86z" />
    <glyph glyph-name="Umacron" unicode="&#x16a;" horiz-adv-x="834" 
d="M760 700v-636c0 -36 -28 -64 -64 -64h-286c-161 0 -350 103 -350 350v350h127v-350c0 -214 200 -223 223 -223h223v573h127zM581 757h-328v115h328v-115z" />
    <glyph glyph-name="Ubreve" unicode="&#x16c;" horiz-adv-x="834" 
d="M760 700v-636c0 -36 -28 -64 -64 -64h-286c-161 0 -350 103 -350 350v350h127v-350c0 -214 200 -223 223 -223h223v573h127zM616 929c-3 -48 -32 -186 -199 -186s-196 138 -199 186h92c8 -23 29 -72 107 -72c77 0 100 49 108 72h91z" />
    <glyph glyph-name="Uring" unicode="&#x16e;" horiz-adv-x="834" 
d="M760 700v-636c0 -36 -28 -64 -64 -64h-286c-161 0 -350 103 -350 350v350h127v-350c0 -214 200 -223 223 -223h223v573h127zM275 832c0 64 58 117 142 117c93 0 142 -53 142 -117s-54 -117 -142 -117c-89 0 -142 53 -142 117zM369 832c0 -26 17 -47 48 -47s47 21 47 47
s-16 47 -47 47s-48 -21 -48 -47z" />
    <glyph glyph-name="Uhungarumlaut" unicode="&#x170;" horiz-adv-x="834" 
d="M760 700v-636c0 -36 -28 -64 -64 -64h-286c-161 0 -350 103 -350 350v350h127v-350c0 -214 200 -223 223 -223h223v573h127zM433 922l55 -94l-185 -91l-27 45zM643 922l55 -94l-185 -91l-25 45z" />
    <glyph glyph-name="Uogonek" unicode="&#x172;" horiz-adv-x="834" 
d="M760 700v-636c0 -36 -28 -64 -64 -64h-43c-33 -27 -53 -62 -53 -91c0 -24 16 -33 53 -33c33 0 83 15 107 25v-91c-24 -7 -65 -22 -137 -22c-70 0 -127 24 -127 92c0 35 16 88 61 120h-147c-161 0 -350 103 -350 350v350h127v-350c0 -214 200 -223 223 -223h223v573h127z
" />
    <glyph glyph-name="Wcircumflex" unicode="&#x174;" horiz-adv-x="1003" 
d="M839 700h129l-117 -656c-5 -26 -25 -47 -51 -52c-26 -4 -52 7 -66 29l-232 382l-233 -382c-11 -19 -32 -30 -54 -30c-30 0 -57 22 -62 53l-118 656h129l84 -462l200 319c11 19 32 30 54 30s42 -11 54 -30l199 -319zM730 819l-59 -82l-170 88l-170 -88l-59 82l229 130z
" />
    <glyph glyph-name="Wgrave" unicode="&#x1e80;" horiz-adv-x="1003" 
d="M839 700h129l-117 -656c-5 -26 -25 -47 -51 -52c-26 -4 -52 7 -66 29l-232 382l-233 -382c-11 -19 -32 -30 -54 -30c-30 0 -57 22 -62 53l-118 656h129l84 -462l200 319c11 19 32 30 54 30s42 -11 54 -30l199 -319zM247 828l54 119l235 -137l-34 -73z" />
    <glyph glyph-name="Wacute" unicode="&#x1e82;" horiz-adv-x="1003" 
d="M839 700h129l-117 -656c-5 -26 -25 -47 -51 -52c-26 -4 -52 7 -66 29l-232 382l-233 -382c-11 -19 -32 -30 -54 -30c-30 0 -57 22 -62 53l-118 656h129l84 -462l200 319c11 19 32 30 54 30s42 -11 54 -30l199 -319zM702 947l54 -119l-255 -91l-34 73z" />
    <glyph glyph-name="Wdieresis" unicode="&#x1e84;" horiz-adv-x="1003" 
d="M839 700h129l-117 -656c-5 -26 -25 -47 -51 -52c-26 -4 -52 7 -66 29l-232 382l-233 -382c-11 -19 -32 -30 -54 -30c-30 0 -57 22 -62 53l-118 656h129l84 -462l200 319c11 19 32 30 54 30s42 -11 54 -30l199 -319zM451 813c0 -35 -29 -63 -63 -63c-35 0 -63 28 -63 63
c0 34 28 63 63 63c34 0 63 -29 63 -63zM677 813c0 -35 -29 -63 -63 -63c-35 0 -63 28 -63 63c0 34 28 63 63 63c34 0 63 -29 63 -63z" />
    <glyph glyph-name="Ycircumflex" unicode="&#x176;" horiz-adv-x="782" 
d="M741 700v-234c0 -173 -141 -236 -235 -236h-51v-230h-128v230h-51c-94 0 -235 63 -235 236v234h127v-234c0 -66 43 -108 109 -108h229c48 7 108 19 108 108v234h127zM620 819l-59 -82l-170 88l-170 -88l-59 82l229 130z" />
    <glyph glyph-name="Ygrave" unicode="&#x1ef2;" horiz-adv-x="782" 
d="M741 700v-234c0 -173 -141 -236 -235 -236h-51v-230h-128v230h-51c-94 0 -235 63 -235 236v234h127v-234c0 -66 43 -108 109 -108h229c48 7 108 19 108 108v234h127zM132 828l54 119l235 -137l-34 -73z" />
    <glyph glyph-name="Zacute" unicode="&#x179;" horiz-adv-x="714" 
d="M673 662c10 -23 6 -50 -11 -68l-419 -467h429v-127h-572c-25 0 -48 15 -58 38c-11 23 -6 50 10 68l420 467h-430v127h573c25 0 48 -15 58 -38zM561 947l54 -119l-255 -91l-34 73z" />
    <glyph glyph-name="Zdotaccent" unicode="&#x17b;" horiz-adv-x="714" 
d="M673 662c10 -23 6 -50 -11 -68l-419 -467h429v-127h-572c-25 0 -48 15 -58 38c-11 23 -6 50 10 68l420 467h-430v127h573c25 0 48 -15 58 -38zM420 813c0 -35 -29 -63 -63 -63c-35 0 -63 28 -63 63c0 34 28 63 63 63c34 0 63 -29 63 -63z" />
    <glyph glyph-name="AEacute" unicode="&#x1fc;" horiz-adv-x="1319" 
d="M1270 127v-127h-458c-70 0 -175 45 -178 172h-446v-172h-127v350c0 205 149 350 350 350h286h5h568v-127h-509v-395c0 -33 18 -51 52 -51h457zM188 350v-51h446v274h-223c-23 0 -223 -9 -223 -223zM1213 414v-128h-401v128h401zM898 947l54 -119l-255 -91l-34 73z" />
    <glyph glyph-name="Oslashacute" unicode="&#x1fe;" horiz-adv-x="862" 
d="M819 751l-95 -121c53 -52 86 -126 86 -213v-134c0 -170 -124 -293 -292 -293h-172c-39 0 -76 7 -110 19l-47 -60h-145l95 121c-54 52 -86 127 -86 213v134c0 171 125 293 293 293h172c39 0 76 -7 109 -19l47 60h145zM683 283v134c0 45 -14 84 -38 112l-323 -411
c8 -1 15 -1 24 -1h171c99 0 166 66 166 166zM180 283c0 -46 14 -84 38 -112l323 411c-8 1 -15 1 -23 1h-172c-99 0 -166 -66 -166 -166v-134zM641 947l54 -119l-255 -91l-34 73z" />
    <glyph glyph-name="amacron" unicode="&#x101;" 
d="M605 353v-178c0 -70 -47 -175 -175 -175h-229c-70 0 -175 47 -175 175c0 70 47 175 175 175h229v-121h-229c-34 0 -54 -24 -54 -55c0 -33 25 -53 55 -53h228c34 0 54 24 54 55v177c0 33 -23 54 -54 54h-279v121h279c70 0 175 -47 175 -175zM491 586h-328v115h328v-115z
" />
    <glyph glyph-name="abreve" unicode="&#x103;" 
d="M605 353v-178c0 -70 -47 -175 -175 -175h-229c-70 0 -175 47 -175 175c0 70 47 175 175 175h229v-121h-229c-34 0 -54 -24 -54 -55c0 -33 25 -53 55 -53h228c34 0 54 24 54 55v177c0 33 -23 54 -54 54h-279v121h279c70 0 175 -47 175 -175zM526 758
c-3 -48 -32 -186 -199 -186s-196 138 -199 186h92c8 -23 29 -72 107 -72c77 0 100 49 108 72h91z" />
    <glyph glyph-name="aogonek" unicode="&#x105;" 
d="M605 353v-178c0 -69 -46 -172 -170 -175c-33 -27 -53 -62 -53 -91c0 -24 16 -33 53 -33c33 0 83 15 107 25v-91c-24 -7 -65 -22 -137 -22c-70 0 -127 24 -127 92c0 35 16 88 61 120h-138c-70 0 -175 47 -175 175c0 70 47 175 175 175h229v-121h-229
c-34 0 -54 -24 -54 -55c0 -33 25 -53 55 -53h228c34 0 54 24 54 55v177c0 33 -23 54 -54 54h-279v121h279c70 0 175 -47 175 -175z" />
    <glyph glyph-name="cacute" unicode="&#x107;" horiz-adv-x="617" 
d="M571 127v-127h-344c-71 0 -178 47 -178 178v172c0 72 47 178 178 178h344v-127h-344c-33 0 -51 -17 -51 -52v-171c0 -33 18 -51 52 -51h343zM552 776l54 -119l-255 -91l-34 73z" />
    <glyph glyph-name="ccircumflex" unicode="&#x109;" horiz-adv-x="617" 
d="M571 127v-127h-344c-71 0 -178 47 -178 178v172c0 72 47 178 178 178h344v-127h-344c-33 0 -51 -17 -51 -52v-171c0 -33 18 -51 52 -51h343zM550 648l-59 -82l-170 88l-170 -88l-59 82l229 130z" />
    <glyph glyph-name="cdotaccent" unicode="&#x10b;" horiz-adv-x="617" 
d="M571 127v-127h-344c-71 0 -178 47 -178 178v172c0 72 47 178 178 178h344v-127h-344c-33 0 -51 -17 -51 -52v-171c0 -33 18 -51 52 -51h343zM389 642c0 -35 -29 -63 -63 -63c-35 0 -63 28 -63 63c0 34 28 63 63 63c34 0 63 -29 63 -63z" />
    <glyph glyph-name="ccaron" unicode="&#x10d;" horiz-adv-x="617" 
d="M571 127v-127h-344c-71 0 -178 47 -178 178v172c0 72 47 178 178 178h344v-127h-344c-33 0 -51 -17 -51 -52v-171c0 -33 18 -51 52 -51h343zM108 686l59 82l170 -88l170 88l59 -82l-229 -130z" />
    <glyph glyph-name="dcaron" unicode="&#x10f;" horiz-adv-x="852" 
d="M634 751v-573c0 -131 -106 -178 -178 -178h-229c-131 0 -178 107 -178 178v172c0 131 107 178 178 178h229v-127h-228c-34 0 -52 -18 -52 -51v-171c0 -34 18 -52 51 -52h229c34 0 51 18 51 51v573h127zM827 666l-60 -196h-72l36 196h96z" />
    <glyph glyph-name="dcroat" unicode="&#x111;" horiz-adv-x="691" 
d="M634 751v-49h101v-114h-101v-410c0 -131 -106 -178 -178 -178h-229c-131 0 -178 107 -178 178v172c0 131 107 178 178 178h229v-127h-228c-34 0 -52 -18 -52 -51v-171c0 -34 18 -52 51 -52h229c34 0 51 18 51 51v410h-104v114h104v49h127z" />
    <glyph glyph-name="emacron" unicode="&#x113;" 
d="M628 353c0 -70 -47 -175 -175 -175h-229v121h229c34 0 54 24 54 55c0 33 -24 53 -54 53h-229c-34 0 -54 -24 -54 -55v-177c0 -34 24 -54 55 -54h228v-121h-229c-70 0 -175 47 -175 175v178c0 70 47 175 175 175h229c70 0 175 -47 175 -175zM491 586h-328v115h328v-115z
" />
    <glyph glyph-name="ebreve" unicode="&#x115;" 
d="M628 353c0 -70 -47 -175 -175 -175h-229v121h229c34 0 54 24 54 55c0 33 -24 53 -54 53h-229c-34 0 -54 -24 -54 -55v-177c0 -34 24 -54 55 -54h228v-121h-229c-70 0 -175 47 -175 175v178c0 70 47 175 175 175h229c70 0 175 -47 175 -175zM526 758
c-3 -48 -32 -186 -199 -186s-196 138 -199 186h92c8 -23 29 -72 107 -72c77 0 100 49 108 72h91z" />
    <glyph glyph-name="edotaccent" unicode="&#x117;" 
d="M628 353c0 -70 -47 -175 -175 -175h-229v121h229c34 0 54 24 54 55c0 33 -24 53 -54 53h-229c-34 0 -54 -24 -54 -55v-177c0 -34 24 -54 55 -54h228v-121h-229c-70 0 -175 47 -175 175v178c0 70 47 175 175 175h229c70 0 175 -47 175 -175zM390 642
c0 -35 -29 -63 -63 -63c-35 0 -63 28 -63 63c0 34 28 63 63 63c34 0 63 -29 63 -63z" />
    <glyph glyph-name="eogonek" unicode="&#x119;" 
d="M628 353c0 -70 -47 -175 -175 -175h-229v121h229c34 0 54 24 54 55c0 33 -24 53 -54 53h-229c-34 0 -54 -24 -54 -55v-177c0 -34 24 -54 55 -54h228v-121h-38c-33 -27 -53 -62 -53 -91c0 -24 16 -33 53 -33c33 0 83 15 107 25v-91c-24 -7 -65 -22 -137 -22
c-70 0 -127 24 -127 92c0 35 16 88 61 120h-95c-70 0 -175 47 -175 175v178c0 70 47 175 175 175h229c70 0 175 -47 175 -175z" />
    <glyph glyph-name="ecaron" unicode="&#x11b;" 
d="M628 353c0 -70 -47 -175 -175 -175h-229v121h229c34 0 54 24 54 55c0 33 -24 53 -54 53h-229c-34 0 -54 -24 -54 -55v-177c0 -34 24 -54 55 -54h228v-121h-229c-70 0 -175 47 -175 175v178c0 70 47 175 175 175h229c70 0 175 -47 175 -175zM98 686l59 82l170 -88l170 88
l59 -82l-229 -130z" />
    <glyph glyph-name="gcircumflex" unicode="&#x11d;" horiz-adv-x="691" 
d="M634 350v-401c0 -131 -106 -178 -178 -178h-229v127h229c34 0 51 18 51 51v401c0 33 -17 51 -51 51h-229c-31 0 -51 -22 -51 -51v-172c0 -33 18 -51 52 -51h228v-127h-229c-72 0 -178 47 -178 178v172c0 72 47 178 178 178h229c72 0 178 -47 178 -178zM574 648l-59 -82
l-170 88l-170 -88l-59 82l229 130z" />
    <glyph glyph-name="gbreve" unicode="&#x11f;" horiz-adv-x="691" 
d="M634 350v-401c0 -131 -106 -178 -178 -178h-229v127h229c34 0 51 18 51 51v401c0 33 -17 51 -51 51h-229c-31 0 -51 -22 -51 -51v-172c0 -33 18 -51 52 -51h228v-127h-229c-72 0 -178 47 -178 178v172c0 72 47 178 178 178h229c72 0 178 -47 178 -178zM544 758
c-3 -48 -32 -186 -199 -186s-196 138 -199 186h92c8 -23 29 -72 107 -72c77 0 100 49 108 72h91z" />
    <glyph glyph-name="gdotaccent" unicode="&#x121;" horiz-adv-x="691" 
d="M634 350v-401c0 -131 -106 -178 -178 -178h-229v127h229c34 0 51 18 51 51v401c0 33 -17 51 -51 51h-229c-31 0 -51 -22 -51 -51v-172c0 -33 18 -51 52 -51h228v-127h-229c-72 0 -178 47 -178 178v172c0 72 47 178 178 178h229c72 0 178 -47 178 -178zM408 642
c0 -35 -29 -63 -63 -63c-35 0 -63 28 -63 63c0 34 28 63 63 63c34 0 63 -29 63 -63z" />
    <glyph glyph-name="gcommaaccent" unicode="&#x123;" horiz-adv-x="691" 
d="M634 350v-401c0 -131 -106 -178 -178 -178h-229v127h229c34 0 51 18 51 51v401c0 33 -17 51 -51 51h-229c-31 0 -51 -22 -51 -51v-172c0 -33 18 -51 52 -51h228v-127h-229c-72 0 -178 47 -178 178v172c0 72 47 178 178 178h229c72 0 178 -47 178 -178zM279 620l61 196h71
l-36 -196h-96z" />
    <glyph glyph-name="hcircumflex" unicode="&#x125;" horiz-adv-x="704" 
d="M647 350v-350h-127v350c0 33 -17 51 -51 51h-229v127h229c72 0 178 -47 178 -178zM189 751v-751h-127v751h127zM661 648l-59 -82l-170 88l-170 -88l-59 82l229 130z" />
    <glyph glyph-name="hbar" unicode="&#x127;" horiz-adv-x="704" 
d="M189 751v-49h72v-114h-72v-588h-127v588h-74v114h74v49h127zM647 350v-350h-127v350c0 33 -17 51 -51 51h-229v127h229c72 0 178 -47 178 -178z" />
    <glyph glyph-name="itilde" unicode="&#x129;" horiz-adv-x="251" 
d="M189 528v-528h-127v528h127zM318 738c0 -125 -55 -168 -122 -168c-71 0 -90 59 -132 59c-39 0 -43 -46 -44 -59h-86c0 111 57 168 123 168c61 0 85 -59 131 -59c39 0 43 45 44 59h86z" />
    <glyph glyph-name="imacron" unicode="&#x12b;" horiz-adv-x="251" 
d="M189 528v-528h-127v528h127zM290 586h-328v115h328v-115z" />
    <glyph glyph-name="ibreve" unicode="&#x12d;" horiz-adv-x="251" 
d="M189 528v-528h-127v528h127zM325 758c-3 -48 -32 -186 -199 -186s-196 138 -199 186h92c8 -23 29 -72 107 -72c77 0 100 49 108 72h91z" />
    <glyph glyph-name="iogonek" unicode="&#x12f;" horiz-adv-x="251" 
d="M189 528v-528h-22c-33 -27 -53 -62 -53 -91c0 -24 16 -33 53 -33c33 0 83 15 107 25v-91c-24 -7 -65 -22 -137 -22c-70 0 -127 24 -127 92c0 35 16 88 61 120h-9v528h127zM189 751v-115h-127v115h127z" />
    <glyph glyph-name="ij" unicode="&#x133;" horiz-adv-x="472" 
d="M189 751v-115h-127v115h127zM189 528v-528h-127v528h127zM410 751v-115h-127v115h127zM410 528v-579c0 -131 -106 -178 -178 -178h-229v127h229c34 0 51 18 51 51v579h127z" />
    <glyph glyph-name="jcircumflex" unicode="&#x135;" horiz-adv-x="251" 
d="M189 528v-579c0 -131 -106 -178 -178 -178h-229v127h229c34 0 51 18 51 51v579h127zM355 648l-59 -82l-170 88l-170 -88l-59 82l229 130z" />
    <glyph glyph-name="kcommaaccent" unicode="&#x137;" horiz-adv-x="692" 
d="M381 288l299 -288h-183l-256 247c-14 13 -21 30 -20 49c1 18 10 35 24 46l232 187h203zM189 751v-751h-127v751h127zM372 -88l-60 -196h-72l36 196h96z" />
    <glyph glyph-name="kgreenlandic" unicode="&#x138;" horiz-adv-x="692" 
d="M381 288l299 -288h-183l-256 247c-14 13 -21 30 -20 49c1 18 10 35 24 46l232 187h203zM189 751v-751h-127v751h127z" />
    <glyph glyph-name="lacute" unicode="&#x13a;" horiz-adv-x="314" 
d="M292 127v-127h-57c-72 0 -178 47 -178 178v573h127v-573c0 -31 22 -51 51 -51h57zM329 990l54 -119l-255 -91l-34 73z" />
    <glyph glyph-name="lcommaaccent" unicode="&#x13c;" horiz-adv-x="314" 
d="M292 127v-127h-57c-72 0 -178 47 -178 178v573h127v-573c0 -31 22 -51 51 -51h57zM223 -88l-60 -196h-72l36 196h96z" />
    <glyph glyph-name="ldotaccent" unicode="&#x140;" horiz-adv-x="395" 
d="M292 127v-127h-57c-72 0 -178 47 -178 178v573h127v-573c0 -31 22 -51 51 -51h57zM351 351c0 -35 -29 -63 -63 -63c-35 0 -63 28 -63 63c0 34 28 63 63 63c34 0 63 -29 63 -63z" />
    <glyph glyph-name="lcaron" unicode="&#x13e;" horiz-adv-x="475" 
d="M292 127v-127h-57c-72 0 -178 47 -178 178v573h127v-573c0 -31 22 -51 51 -51h57zM450 666l-60 -196h-72l36 196h96z" />
    <glyph glyph-name="nacute" unicode="&#x144;" horiz-adv-x="697" 
d="M645 293v-293h-127v293c0 66 -48 108 -109 108h-222v-401h-127v465c0 35 28 63 64 63h286c95 0 235 -63 235 -235zM544 776l54 -119l-255 -91l-34 73z" />
    <glyph glyph-name="ncommaaccent" unicode="&#x146;" horiz-adv-x="697" 
d="M645 293v-293h-127v293c0 66 -48 108 -109 108h-222v-401h-127v465c0 35 28 63 64 63h286c95 0 235 -63 235 -235zM414 -88l-60 -196h-72l36 196h96z" />
    <glyph glyph-name="ncaron" unicode="&#x148;" horiz-adv-x="697" 
d="M645 293v-293h-127v293c0 66 -48 108 -109 108h-222v-401h-127v465c0 35 28 63 64 63h286c95 0 235 -63 235 -235zM119 686l59 82l170 -88l170 88l59 -82l-229 -130z" />
    <glyph glyph-name="napostrophe" unicode="&#x149;" horiz-adv-x="803" 
d="M166 666l-60 -196h-72l36 196h96zM751 293v-293h-127v293c0 66 -48 108 -109 108h-222v-401h-127v465c0 35 28 63 64 63h286c95 0 235 -63 235 -235z" />
    <glyph glyph-name="eng" unicode="&#x14b;" horiz-adv-x="697" 
d="M645 293l-2 -399c0 -131 -106 -178 -178 -178h-229v127h229c34 0 51 18 51 51l2 399c0 66 -48 108 -109 108h-222v-401h-127v465c0 35 28 63 64 63h286c95 0 235 -63 235 -235z" />
    <glyph glyph-name="omacron" unicode="&#x14d;" horiz-adv-x="683" 
d="M634 350v-172c0 -131 -106 -178 -178 -178h-229c-71 0 -178 47 -178 178v172c0 131 107 178 178 178h229c131 0 178 -106 178 -178zM507 178v171c0 35 -18 52 -51 52h-228c-34 0 -52 -18 -52 -51v-172c0 -33 18 -51 52 -51h228c34 0 51 18 51 51zM505 586h-328v115h328
v-115z" />
    <glyph glyph-name="obreve" unicode="&#x14f;" horiz-adv-x="683" 
d="M634 350v-172c0 -131 -106 -178 -178 -178h-229c-71 0 -178 47 -178 178v172c0 131 107 178 178 178h229c131 0 178 -106 178 -178zM507 178v171c0 35 -18 52 -51 52h-228c-34 0 -52 -18 -52 -51v-172c0 -33 18 -51 52 -51h228c34 0 51 18 51 51zM540 758
c-3 -48 -32 -186 -199 -186s-196 138 -199 186h92c8 -23 29 -72 107 -72c77 0 100 49 108 72h91z" />
    <glyph glyph-name="ohungarumlaut" unicode="&#x151;" horiz-adv-x="683" 
d="M634 350v-172c0 -131 -106 -178 -178 -178h-229c-71 0 -178 47 -178 178v172c0 131 107 178 178 178h229c131 0 178 -106 178 -178zM507 178v171c0 35 -18 52 -51 52h-228c-34 0 -52 -18 -52 -51v-172c0 -33 18 -51 52 -51h228c34 0 51 18 51 51zM367 751l55 -94
l-185 -91l-27 45zM577 751l55 -94l-185 -91l-25 45z" />
    <glyph glyph-name="racute" unicode="&#x155;" horiz-adv-x="546" 
d="M522 528v-127h-286c-34 0 -52 -18 -52 -51v-350h-127v350c0 131 107 178 178 178h287zM496 776l54 -119l-255 -91l-34 73z" />
    <glyph glyph-name="rcommaaccent" unicode="&#x157;" horiz-adv-x="546" 
d="M522 528v-127h-286c-34 0 -52 -18 -52 -51v-350h-127v350c0 131 107 178 178 178h287zM339 -88l-60 -196h-72l36 196h96z" />
    <glyph glyph-name="rcaron" unicode="&#x159;" horiz-adv-x="546" 
d="M522 528v-127h-286c-34 0 -52 -18 -52 -51v-350h-127v350c0 131 107 178 178 178h287zM44 686l59 82l170 -88l170 88l59 -82l-229 -130z" />
    <glyph glyph-name="sacute" unicode="&#x15b;" horiz-adv-x="600" 
d="M570 178c0 -131 -106 -178 -178 -178h-344v127h343c34 0 52 18 52 51c-1 34 -18 51 -51 51h-197c-112 0 -153 88 -153 146c0 113 91 153 153 153h312v-127h-311c-26 0 -27 -14 -27 -24c1 -21 14 -21 26 -21h197c131 0 178 -106 178 -178zM500 776l54 -119l-255 -91
l-34 73z" />
    <glyph glyph-name="scircumflex" unicode="&#x15d;" horiz-adv-x="600" 
d="M570 178c0 -131 -106 -178 -178 -178h-344v127h343c34 0 52 18 52 51c-1 34 -18 51 -51 51h-197c-112 0 -153 88 -153 146c0 113 91 153 153 153h312v-127h-311c-26 0 -27 -14 -27 -24c1 -21 14 -21 26 -21h197c131 0 178 -106 178 -178zM529 648l-59 -82l-170 88
l-170 -88l-59 82l229 130z" />
    <glyph glyph-name="scedilla" unicode="&#x15f;" horiz-adv-x="600" 
d="M570 178c0 -131 -106 -178 -178 -178h-50l-13 -34c38 0 103 -14 103 -88c0 -75 -82 -99 -155 -99c-66 0 -84 7 -109 11v86c26 -12 62 -22 98 -22c37 0 65 7 65 25c0 21 -36 25 -57 25c-15 0 -33 -2 -46 -6l38 102h-218v127h343c34 0 52 18 52 51c-1 34 -18 51 -51 51
h-197c-112 0 -153 88 -153 146c0 113 91 153 153 153h312v-127h-311c-26 0 -27 -14 -27 -24c1 -21 14 -21 26 -21h197c131 0 178 -106 178 -178z" />
    <glyph glyph-name="tcommaaccent" unicode="&#x163;" horiz-adv-x="564" 
d="M540 528v-127h-222v-401h-128v401h-165v127h165v172h128v-172h222zM300 -88l-60 -196h-72l36 196h96z" />
    <glyph glyph-name="tcaron" unicode="&#x165;" horiz-adv-x="725" 
d="M540 528v-127h-222v-401h-128v401h-165v127h165v172h128v-172h222zM700 666l-60 -196h-72l36 196h96z" />
    <glyph glyph-name="tbar" unicode="&#x167;" horiz-adv-x="564" 
d="M459 357v-114h-141v-243h-128v243h-131v114h131v44h-165v127h165v172h128v-172h222v-127h-222v-44h141z" />
    <glyph glyph-name="utilde" unicode="&#x169;" horiz-adv-x="697" 
d="M637 528v-464c0 -36 -28 -64 -63 -64h-287c-94 0 -235 63 -235 235v293h127v-293c0 -66 48 -108 109 -108h222v401h127zM540 738c0 -125 -55 -168 -122 -168c-71 0 -90 59 -132 59c-39 0 -43 -46 -44 -59h-86c0 111 57 168 123 168c61 0 85 -59 131 -59c39 0 43 45 44 59
h86z" />
    <glyph glyph-name="umacron" unicode="&#x16b;" horiz-adv-x="697" 
d="M637 528v-464c0 -36 -28 -64 -63 -64h-287c-94 0 -235 63 -235 235v293h127v-293c0 -66 48 -108 109 -108h222v401h127zM512 586h-328v115h328v-115z" />
    <glyph glyph-name="ubreve" unicode="&#x16d;" horiz-adv-x="697" 
d="M637 528v-464c0 -36 -28 -64 -63 -64h-287c-94 0 -235 63 -235 235v293h127v-293c0 -66 48 -108 109 -108h222v401h127zM547 758c-3 -48 -32 -186 -199 -186s-196 138 -199 186h92c8 -23 29 -72 107 -72c77 0 100 49 108 72h91z" />
    <glyph glyph-name="uring" unicode="&#x16f;" horiz-adv-x="697" 
d="M637 528v-464c0 -36 -28 -64 -63 -64h-287c-94 0 -235 63 -235 235v293h127v-293c0 -66 48 -108 109 -108h222v401h127zM206 661c0 64 58 117 142 117c93 0 142 -53 142 -117s-54 -117 -142 -117c-89 0 -142 53 -142 117zM300 661c0 -26 17 -47 48 -47s47 21 47 47
s-16 47 -47 47s-48 -21 -48 -47z" />
    <glyph glyph-name="uhungarumlaut" unicode="&#x171;" horiz-adv-x="697" 
d="M637 528v-464c0 -36 -28 -64 -63 -64h-287c-94 0 -235 63 -235 235v293h127v-293c0 -66 48 -108 109 -108h222v401h127zM364 751l55 -94l-185 -91l-27 45zM574 751l55 -94l-185 -91l-25 45z" />
    <glyph glyph-name="uogonek" unicode="&#x173;" horiz-adv-x="697" 
d="M637 528v-464c0 -36 -28 -64 -63 -64h-44c-33 -27 -53 -62 -53 -91c0 -24 16 -33 53 -33c33 0 83 15 107 25v-91c-24 -7 -65 -22 -137 -22c-70 0 -127 24 -127 92c0 35 16 88 61 120h-147c-94 0 -235 63 -235 235v293h127v-293c0 -66 48 -108 109 -108h222v401h127z" />
    <glyph glyph-name="wcircumflex" unicode="&#x175;" horiz-adv-x="914" 
d="M787 528h142c-120 -272 -311 -528 -444 -528c-36 0 -64 28 -64 64v237l-252 -282c-13 -13 -29 -19 -45 -19c-35 0 -64 28 -64 64v464h127v-301l253 283c18 18 45 23 69 13s39 -33 39 -58v-302c109 105 175 238 239 365zM726 648l-59 -82l-170 88l-170 -88l-59 82l229 130
z" />
    <glyph glyph-name="wgrave" unicode="&#x1e81;" horiz-adv-x="914" 
d="M787 528h142c-120 -272 -311 -528 -444 -528c-36 0 -64 28 -64 64v237l-252 -282c-13 -13 -29 -19 -45 -19c-35 0 -64 28 -64 64v464h127v-301l253 283c18 18 45 23 69 13s39 -33 39 -58v-302c109 105 175 238 239 365zM232 657l54 119l235 -137l-34 -73z" />
    <glyph glyph-name="wacute" unicode="&#x1e83;" horiz-adv-x="914" 
d="M787 528h142c-120 -272 -311 -528 -444 -528c-36 0 -64 28 -64 64v237l-252 -282c-13 -13 -29 -19 -45 -19c-35 0 -64 28 -64 64v464h127v-301l253 283c18 18 45 23 69 13s39 -33 39 -58v-302c109 105 175 238 239 365zM707 776l54 -119l-255 -91l-34 73z" />
    <glyph glyph-name="wdieresis" unicode="&#x1e85;" horiz-adv-x="914" 
d="M787 528h142c-120 -272 -311 -528 -444 -528c-36 0 -64 28 -64 64v237l-252 -282c-13 -13 -29 -19 -45 -19c-35 0 -64 28 -64 64v464h127v-301l253 283c18 18 45 23 69 13s39 -33 39 -58v-302c109 105 175 238 239 365zM492 642c0 -35 -29 -63 -63 -63
c-35 0 -63 28 -63 63c0 34 28 63 63 63c34 0 63 -29 63 -63zM718 642c0 -35 -29 -63 -63 -63c-35 0 -63 28 -63 63c0 34 28 63 63 63c34 0 63 -29 63 -63z" />
    <glyph glyph-name="ycircumflex" unicode="&#x177;" horiz-adv-x="704" 
d="M642 528v-579c0 -131 -106 -178 -178 -178h-229v127h229c34 0 51 18 51 51v579h127zM464 127v-127h-229c-72 0 -178 47 -178 178v350h127v-350c0 -33 18 -51 52 -51h228zM581 648l-59 -82l-170 88l-170 -88l-59 82l229 130z" />
    <glyph glyph-name="ygrave" unicode="&#x1ef3;" horiz-adv-x="704" 
d="M642 528v-579c0 -131 -106 -178 -178 -178h-229v127h229c34 0 51 18 51 51v579h127zM464 127v-127h-229c-72 0 -178 47 -178 178v350h127v-350c0 -33 18 -51 52 -51h228zM84 657l54 119l235 -137l-34 -73z" />
    <glyph glyph-name="zacute" unicode="&#x17a;" horiz-adv-x="602" 
d="M560 489c10 -24 5 -51 -13 -69l-293 -293h305v-127h-458c-26 0 -49 16 -59 39c-10 24 -5 51 14 70l292 292h-305v127h459c25 0 48 -15 58 -39zM499 776l54 -119l-255 -91l-34 73z" />
    <glyph glyph-name="zdotaccent" unicode="&#x17c;" horiz-adv-x="602" 
d="M560 489c10 -24 5 -51 -13 -69l-293 -293h305v-127h-458c-26 0 -49 16 -59 39c-10 24 -5 51 14 70l292 292h-305v127h459c25 0 48 -15 58 -39zM364 642c0 -35 -29 -63 -63 -63c-35 0 -63 28 -63 63c0 34 28 63 63 63c34 0 63 -29 63 -63z" />
    <glyph glyph-name="aeacute" unicode="&#x1fd;" horiz-adv-x="1090" 
d="M1063 353c0 -70 -47 -175 -175 -175h-229v121h229c34 0 54 24 54 55c0 33 -24 53 -54 53h-229c-34 0 -54 -24 -54 -54v-178v-5c2 -31 25 -49 55 -49h228v-121h-229c-35 0 -79 12 -114 40c-28 -24 -65 -40 -115 -40h-229c-70 0 -175 47 -175 175c0 70 47 175 175 175h229
v-121h-229c-34 0 -54 -24 -54 -55c0 -33 25 -53 55 -53h228c34 0 54 24 54 55v177c0 33 -23 54 -54 54h-279v121h279c35 0 79 -12 114 -40c27 24 65 40 115 40h229c70 0 175 -47 175 -175zM746 776l54 -119l-255 -91l-34 73z" />
    <glyph glyph-name="oslashacute" unicode="&#x1ff;" horiz-adv-x="683" 
d="M642 579l-68 -93c43 -37 60 -93 60 -136v-172c0 -131 -106 -178 -178 -178h-229h-7l-37 -51h-141l67 92c-34 28 -60 72 -60 137v172c0 131 107 178 178 178h229h7l37 51h142zM176 178c0 -14 3 -24 9 -33l185 256h-142c-34 0 -52 -18 -52 -51v-172zM507 178v171
c0 14 -3 25 -9 33l-186 -255h144c34 0 51 18 51 51zM552 776l54 -119l-255 -91l-34 73z" />
    <glyph glyph-name="space" unicode=" " horiz-adv-x="325" 
 />
    <glyph glyph-name="brokenbar" unicode="&#xa6;" horiz-adv-x="263" 
d="M195 815v-414h-127v414h127zM195 299v-414h-127v414h127z" />
    </font>
</defs>
</svg>
